<?xml version="1.0" encoding="utf-8"?>
<!-- Generator: Adobe Illustrator 24.2.1, SVG Export Plug-In . SVG Version: 6.00 Build 0)  -->
<svg version="1.1" id="Capa_1" xmlns="http://www.w3.org/2000/svg" xmlns:xlink="http://www.w3.org/1999/xlink" x="0px" y="0px"
	 viewBox="0 0 512 512" style="enable-background:new 0 0 512 512;" xml:space="preserve">
<style type="text/css">
	.st0{fill:#02258B;}
	.st1{fill:#FFFFFF;}
</style>
<g>
	<g>
		<g>
			<g>
				<path class="st1" d="M472,0H40C17.9,0,0,17.9,0,40v314.1c0,22.1,17.9,40,40,40h157v50.2c-29.3,2.9-52.3,27.6-52.3,57.7
					c0,5.5,4.5,10,10,10h202.7c5.5,0,10-4.5,10-10c0-30.7-24.1-56-54.3-57.9v-50h46.7c5.5,0,10-4.5,10-10s-4.5-10-10-10H40
					c-11,0-20-9-20-20V40c0-11,9-20,20-20h432c11,0,20,9,20,20v314.1c0,11-9,20-20,20h-37.3c-5.5,0-10,4.5-10,10s4.5,10,10,10H472
					c22.1,0,40-17.9,40-40V40C512,17.9,494.1,0,472,0z M217,394.1h76V444h-76V394.1z M309.3,464c17.5,0,32.3,11.9,36.7,28H166
					c4.4-16.1,19.2-28,36.7-28H309.3z"/>
			</g>
		</g>
	</g>
	<g>
		<g>
			<g>
				<path class="st1" d="M462,40.1H303c-5.5,0-10,4.5-10,10s4.5,10,10,10h149v250H60v-250h153.5c5.5,0,10-4.5,10-10s-4.5-10-10-10
					H50c-5.5,0-10,4.5-10,10v270c0,5.5,4.5,10,10,10h412c5.5,0,10-4.5,10-10v-270C472,44.6,467.5,40.1,462,40.1z"/>
			</g>
		</g>
	</g>
	<path class="st1" d="M289.5,133.6H95.7c-5.7,0-10.3-4.6-10.3-10.3v0c0-5.7,4.6-10.3,10.3-10.3h193.8c5.7,0,10.3,4.6,10.3,10.3v0
		C299.9,129,295.2,133.6,289.5,133.6z"/>
	<path class="st1" d="M242.8,167.3H95.7c-5.7,0-10.3-4.6-10.3-10.3v0c0-5.7,4.6-10.3,10.3-10.3h147.1c5.7,0,10.3,4.6,10.3,10.3v0
		C253.1,162.7,248.5,167.3,242.8,167.3z"/>
	<path class="st1" d="M242.8,201.8H95.7c-5.7,0-10.3-4.6-10.3-10.3v0c0-5.7,4.6-10.3,10.3-10.3h147.1c5.7,0,10.3,4.6,10.3,10.3v0
		C253.1,197.2,248.5,201.8,242.8,201.8z"/>
	<path class="st1" d="M204.5,236.3H95.7c-5.7,0-10.3-4.6-10.3-10.3v0c0-5.7,4.6-10.3,10.3-10.3h108.8c5.7,0,10.3,4.6,10.3,10.3v0
		C214.8,231.6,210.2,236.3,204.5,236.3z"/>
</g>
</svg>
