<?xml version="1.0" encoding="utf-8"?>
<!-- Generator: Adobe Illustrator 21.1.0, SVG Export Plug-In . SVG Version: 6.00 Build 0)  -->
<svg version="1.1" id="Capa_1" xmlns="http://www.w3.org/2000/svg" xmlns:xlink="http://www.w3.org/1999/xlink" x="0px" y="0px"
	 viewBox="0 0 512 512" style="enable-background:new 0 0 512 512;" xml:space="preserve">
<style type="text/css">
	.st0{fill:rgba(255, 255, 255);}
</style>
<g>
	<g>
		<path class="st0" d="M497,182h-75V15c0-8.3-6.7-15-15-15H15C6.7,0,0,6.7,0,15v422c0,41.4,33.6,75,75,75c12.5,0,358.2,0,377,0
			c33.1,0,60-26.9,60-60V197C512,188.7,505.3,182,497,182z M75,482c-24.8,0-45-20.2-45-45V30h362c0,11.7,0,398.2,0,407v15
			c0,10.9,2.9,21.2,8.1,30H75z M482,452c0,16.5-13.5,30-30,30s-30-13.5-30-30v-15V212h60V452z"/>
	</g>
</g>
<g>
	<g>
		<path class="st0" d="M347,383H75c-8.3,0-15,6.7-15,15s6.7,15,15,15h272c8.3,0,15-6.7,15-15S355.3,383,347,383z"/>
	</g>
</g>
<g>
	<g>
		<path class="st0" d="M237,223H76c-8.3,0-15,6.7-15,15s6.7,15,15,15h161c8.3,0,15-6.7,15-15S245.3,223,237,223z"/>
	</g>
</g>
<g>
	<g>
		<path class="st0" d="M237,303H76c-8.3,0-15,6.7-15,15s6.7,15,15,15h161c8.3,0,15-6.7,15-15S245.3,303,237,303z"/>
	</g>
</g>
<g>
	<g>
		<path class="st0" d="M347,60H75c-8.3,0-15,6.7-15,15v85c0,8.3,6.7,15,15,15h272c8.3,0,15-6.7,15-15V75C362,66.7,355.3,60,347,60z
			 M332,145H90V90h242V145z"/>
	</g>
</g>
</svg>
