<?xml version="1.0" encoding="utf-8"?>
<!-- Generator: Adobe Illustrator 21.1.0, SVG Export Plug-In . SVG Version: 6.00 Build 0)  -->
<svg version="1.1" id="Layer_1" xmlns="http://www.w3.org/2000/svg" xmlns:xlink="http://www.w3.org/1999/xlink" x="0px" y="0px"
	 viewBox="0 0 100 98.6" style="enable-background:new 0 0 100 98.6;" xml:space="preserve">
<style type="text/css">
	.st0{fill:rgba(255, 255, 255);}
</style>
<g>
	<path class="st0" d="M86.5,4.7h-64c-4.3,0-7.8,3.5-7.8,7.8v75c0,4.3,3.5,7.8,7.8,7.8h64c1.5,0,2.8-1.2,2.8-2.8v-85
		C89.2,6,88,4.7,86.5,4.7z M51.4,32.5c1,0.4,2.2,0.2,3-0.6l5.6-5.6l5.5,5.5c0.5,0.5,1.2,0.8,2,0.8c0.3,0,0.5-0.1,0.8-0.1l0.3-0.1
		c1-0.3,1.7-1.3,1.7-2.4V10.2h13.5v79.5H30.2V10.2h19.5V30C49.8,31.1,50.4,32.1,51.4,32.5z M64.8,23.4L62,20.6
		c-0.6-0.8-1.5-0.9-2-0.9c-0.8,0-1.5,0.3-2,0.8l-2.8,2.9V10.2h9.5V23.4z M20.2,12.5c0-1.3,1-2.2,2.2-2.2h2.2v79.5h-2.2
		c-1.3,0-2.2-1-2.2-2.2V12.5z"/>
	<path class="st0" d="M39.8,42.5c0,1.5,1.2,2.8,2.8,2.8h25c1.5,0,2.8-1.2,2.8-2.8s-1.2-2.8-2.8-2.8h-25C41,39.7,39.8,41,39.8,42.5z"
		/>
	<path class="st0" d="M67.5,49.7h-25c-1.5,0-2.8,1.2-2.8,2.8s1.2,2.8,2.8,2.8h25c1.5,0,2.8-1.2,2.8-2.8S69,49.7,67.5,49.7z"/>
	<path class="st0" d="M62.5,74.8h-15c-1.5,0-2.8,1.2-2.8,2.8s1.2,2.8,2.8,2.8h15c1.5,0,2.8-1.2,2.8-2.8S64,74.8,62.5,74.8z"/>
</g>
</svg>
