<?xml version="1.0" encoding="utf-8"?>
<!-- Generator: Adobe Illustrator 21.1.0, SVG Export Plug-In . SVG Version: 6.00 Build 0)  -->
<svg version="1.1" id="Capa_1" xmlns="http://www.w3.org/2000/svg" xmlns:xlink="http://www.w3.org/1999/xlink" x="0px" y="0px"
	 viewBox="0 0 404 512" style="enable-background:new 0 0 404 512;" xml:space="preserve">
<style type="text/css">
	.st0{fill:rgba(255, 255, 255);}
</style>
<g>
	<g>
		<path class="st0" d="M351,61h-46V45c0-8.3-6.7-15-15-15h-47.6C236.2,12.5,219.6,0,200,0s-36.2,12.5-42.4,30H109
			c-8.3,0-15,6.7-15,15v16H49C24.2,61,4,81.2,4,106v361c0,24.8,20.2,45,45,45h302c24.8,0,45-20.2,45-45V106
			C396,81.2,375.8,61,351,61z M124,60h46c8.3,0,15-6.7,15-15c0-8.3,6.7-15,15-15s15,6.7,15,15c0,8.3,6.7,15,15,15h45v16
			c0,8.3-6.7,15-15,15H139c-8.3,0-15-6.7-15-15V60z M366,467c0,8.3-6.7,15-15,15H49c-8.3,0-15-6.7-15-15V106c0-8.3,6.7-15,15-15
			h47.6c6.2,17.5,22.9,30,42.4,30h121c19.6,0,36.2-12.5,42.4-30H351c8.3,0,15,6.7,15,15V467z"/>
	</g>
</g>
<g>
	<g>
		<path class="st0" d="M180.7,260.5c-5.8-5.9-15.3-6-21.2-0.2l-50.4,49.6l-19.5-19.5c-5.9-5.9-15.4-5.9-21.2,0s-5.9,15.4,0,21.2
			l30,30c2.9,2.9,6.8,4.4,10.6,4.4c3.8,0,7.6-1.4,10.5-4.3l61-60C186.4,275.9,186.5,266.4,180.7,260.5z"/>
	</g>
</g>
<g>
	<g>
		<path class="st0" d="M180.7,365.5c-5.8-5.9-15.3-6-21.2-0.2l-50.4,49.6l-19.5-19.5c-5.9-5.9-15.4-5.9-21.2,0s-5.9,15.4,0,21.2
			l30,30c2.9,2.9,6.8,4.4,10.6,4.4c3.8,0,7.6-1.4,10.5-4.3l61-60C186.4,380.9,186.5,371.4,180.7,365.5z"/>
	</g>
</g>
<g>
	<g>
		<path class="st0" d="M149.6,215.4L130.2,196l19.4-19.4c5.9-5.9,5.9-15.4,0-21.2c-5.9-5.9-15.4-5.9-21.2,0L109,174.8l-19.4-19.4
			c-5.9-5.9-15.4-5.9-21.2,0s-5.9,15.4,0,21.2L87.8,196l-19.4,19.4c-5.9,5.9-5.9,15.4,0,21.2c5.9,5.9,15.4,5.9,21.2,0l19.4-19.4
			l19.4,19.4c5.9,5.9,15.4,5.9,21.2,0S155.5,221.3,149.6,215.4z"/>
	</g>
</g>
<g>
	<g>
		<path class="st0" d="M321,181h-91c-8.3,0-15,6.7-15,15s6.7,15,15,15h91c8.3,0,15-6.7,15-15S329.3,181,321,181z"/>
	</g>
</g>
<g>
	<g>
		<path class="st0" d="M321,286h-91c-8.3,0-15,6.7-15,15s6.7,15,15,15h91c8.3,0,15-6.7,15-15S329.3,286,321,286z"/>
	</g>
</g>
<g>
	<g>
		<path class="st0" d="M321,391h-91c-8.3,0-15,6.7-15,15s6.7,15,15,15h91c8.3,0,15-6.7,15-15S329.3,391,321,391z"/>
	</g>
</g>
</svg>
