<?xml version="1.0" encoding="utf-8"?>
<!-- Generator: Adobe Illustrator 21.1.0, SVG Export Plug-In . SVG Version: 6.00 Build 0)  -->
<svg version="1.1" id="Capa_1" xmlns="http://www.w3.org/2000/svg" xmlns:xlink="http://www.w3.org/1999/xlink" x="0px" y="0px"
	 viewBox="0 0 396.2 396.2" style="enable-background:new 0 0 396.2 396.2;" xml:space="preserve">
<style type="text/css">
	.st0{fill:rgba(255, 255, 255);}
</style>
<g>
	<path class="st0" d="M350.5,95.7l0-0.9l-1.1-0.4l-0.3-0.3h0l-79.5-79.5c-2-2-4.6-3.1-7.4-3.1h-192c-14.6,0-26.5,11.9-26.5,26.5v320
		c0,14.6,11.9,26.5,26.5,26.5h256c14.6,0,26.5-11.9,26.5-26.5v-256C352.6,99.8,351.9,97.6,350.5,95.7z M256.6,107.6v-75h1.2
		l73.8,73.9v1.1H256.6z M64.6,38.1c0-3,2.5-5.5,5.5-5.5h165.5v27H102.1c-5.8,0-10.5,4.7-10.5,10.5v48c0,5.8,4.7,10.5,10.5,10.5
		s10.5-4.7,10.5-10.5V80.6h123v37.5c0,5.8,4.7,10.5,10.5,10.5h85.5v229.5c0,3-2.5,5.5-5.5,5.5h-256c-3,0-5.5-2.5-5.5-5.5V38.1z"/>
	<path class="st0" d="M190.7,317.5c1.8,1.8,4.2,2.9,6.7,3.1l0,0c0.2,0,0.5,0,0.7,0c0.4,0,0.8,0,1.1-0.1l0.2,0c2.1-0.3,4-1.1,5.6-2.5
		c0.2-0.2,0.4-0.3,0.5-0.5l48-48c2-2,3.1-4.6,3.1-7.4s-1.1-5.4-3.1-7.4c-2-2-4.6-3.1-7.4-3.1s-5.4,1.1-7.4,3.1l-30.1,30.1V150.1
		c0-5.8-4.7-10.5-10.5-10.5c-5.8,0-10.5,4.7-10.5,10.5v134.7l-30.1-30.1c-4.1-4.1-10.8-4.1-14.8,0c-2,2-3.1,4.6-3.1,7.4
		s1.1,5.4,3.1,7.4L190.7,317.5z"/>
</g>
</svg>
