<?xml version="1.0" encoding="utf-8"?>
<!-- Generator: Adobe Illustrator 21.1.0, SVG Export Plug-In . SVG Version: 6.00 Build 0)  -->
<svg version="1.1" id="Layer_1" xmlns="http://www.w3.org/2000/svg" xmlns:xlink="http://www.w3.org/1999/xlink" x="0px" y="0px"
	 viewBox="0 0 16 15.5" style="enable-background:new 0 0 16 15.5;" xml:space="preserve">
<style type="text/css">
	.st0{fill:rgba(255, 255, 255);}
</style>
<g>
	<path class="st0" d="M11.4,2.8c-0.3-0.2-0.8-0.1-1,0.3c-0.1,0.1-0.1,0.3-0.1,0.5c0,0.2,0.2,0.3,0.3,0.4c2.2,1.3,3.1,3.4,2.4,5.7
		c-0.7,2.2-2.7,3.6-5.1,3.6c-2.4,0-4.4-1.5-5.1-3.8C2.2,7.3,3.1,5.2,5.2,4.1c0.3-0.1,0.4-0.5,0.3-0.8S5.1,2.7,4.8,2.7
		c0,0-0.1,0-0.1,0c-0.1,0-0.1,0-0.2,0.1c-3.1,1.6-3.7,4.8-3,7.2c0.7,2.4,3,4.8,6.4,4.8c3.5,0,5.7-2.3,6.5-4.6
		C15.2,7.8,14.6,4.6,11.4,2.8z"/>
	<path class="st0" d="M8.5,7.5C8.6,7.4,8.7,7.2,8.7,7V1c0-0.3-0.1-0.4-0.2-0.5C8.4,0.3,8.2,0.2,8,0.2c-0.1,0-0.3,0.1-0.5,0.2
		C7.4,0.6,7.3,0.8,7.3,1v6c0,0.2,0.1,0.4,0.2,0.5C7.8,7.8,8.2,7.8,8.5,7.5z"/>
</g>
</svg>
