<?xml version="1.0" encoding="utf-8"?>
<!-- Generator: Adobe Illustrator 24.0.1, SVG Export Plug-In . SVG Version: 6.00 Build 0)  -->
<svg version="1.1" id="Capa_1" xmlns="http://www.w3.org/2000/svg" xmlns:xlink="http://www.w3.org/1999/xlink" x="0px" y="0px"
	 viewBox="0 0 20 20" style="enable-background:new 0 0 20 20;" xml:space="preserve">
<style type="text/css">
	.st0{fill:#FFFFFF;}
	.st1{fill:#02258B;}
</style>
<g>
	<path class="st0" d="M16.1,10.7V3.3c0-1-0.8-1.8-1.8-1.8H1.8C0.8,1.5,0,2.3,0,3.3v7.3c0,1,0.8,1.8,1.8,1.8h0.5v2.2
		c0,0.4,0.3,0.7,0.7,0.7l0,0c0.2,0,0.4-0.1,0.6-0.3L6,12.5h8.3C15.3,12.5,16.1,11.7,16.1,10.7z M5.8,11.5c-0.1,0-0.3,0.1-0.4,0.2
		l-2,2.3v-2c0-0.3-0.2-0.5-0.5-0.5h-1c-0.5,0-0.8-0.4-0.8-0.8V3.3c0-0.5,0.4-0.8,0.8-0.8h12.4c0.5,0,0.8,0.4,0.8,0.8v7.3
		c0,0.5-0.4,0.8-0.8,0.8H5.8L5.8,11.5z"/>
	<path class="st0" d="M6.2,15.1c0,0.3,0.2,0.5,0.5,0.5H14l2.3,2.7c0.1,0.2,0.3,0.3,0.6,0.3c0.1,0,0.2,0,0.3,0
		c0.3-0.1,0.5-0.4,0.5-0.7v-2.2h0.5c1,0,1.8-0.8,1.8-1.8V6.4c0-1-0.8-1.8-1.8-1.8h-2.4v1l2.4,0c0.5,0,0.8,0.4,0.8,0.8v7.3
		c0,0.5-0.4,0.8-0.8,0.8h-1c-0.3,0-0.5,0.2-0.5,0.5v2l-2-2.3c-0.1-0.1-0.2-0.2-0.4-0.2H7.4c-0.1,0-0.2-0.1-0.2-0.2v-0.1v-1.8h-1
		V15.1z"/>
	<circle class="st0" cx="8.1" cy="7.2" r="0.6"/>
	<circle class="st0" cx="11.7" cy="7.2" r="0.6"/>
	<circle class="st0" cx="4.4" cy="7.2" r="0.6"/>
	<path class="st0" d="M7.3,14.6"/>
</g>
<g>
	<path class="st1" d="M-11.4,10.7V3.3c0-1-0.8-1.8-1.8-1.8h-12.4c-1,0-1.8,0.8-1.8,1.8v7.3c0,1,0.8,1.8,1.8,1.8h0.5v2.2
		c0,0.4,0.3,0.7,0.7,0.7l0,0c0.2,0,0.4-0.1,0.6-0.3l2.3-2.7h8.3C-12.2,12.5-11.4,11.7-11.4,10.7z M-21.8,11.5
		c-0.1,0-0.3,0.1-0.4,0.2l-2,2.3v-2c0-0.3-0.2-0.5-0.5-0.5h-1c-0.5,0-0.8-0.4-0.8-0.8V3.3c0-0.5,0.4-0.8,0.8-0.8h12.4
		c0.5,0,0.8,0.4,0.8,0.8v7.3c0,0.5-0.4,0.8-0.8,0.8H-21.8L-21.8,11.5z"/>
	<path class="st1" d="M-21.3,15.1c0,0.3,0.2,0.5,0.5,0.5h7.3l2.3,2.7c0.1,0.2,0.3,0.3,0.6,0.3c0.1,0,0.2,0,0.3,0
		c0.3-0.1,0.5-0.4,0.5-0.7v-2.2h0.5c1,0,1.8-0.8,1.8-1.8V6.4c0-1-0.8-1.8-1.8-1.8h-2.4v1l2.4,0c0.5,0,0.8,0.4,0.8,0.8v7.3
		c0,0.5-0.4,0.8-0.8,0.8h-1c-0.3,0-0.5,0.2-0.5,0.5v2l-2-2.3c-0.1-0.1-0.2-0.2-0.4-0.2h-6.8c-0.1,0-0.2-0.1-0.2-0.2v-0.1v-1.8h-1
		V15.1z"/>
	<circle class="st1" cx="-19.5" cy="7.2" r="0.6"/>
	<circle class="st1" cx="-15.8" cy="7.2" r="0.6"/>
	<circle class="st1" cx="-23.1" cy="7.2" r="0.6"/>
	<path class="st1" d="M-20.2,14.6"/>
</g>
</svg>
