<?xml version="1.0" encoding="utf-8"?>
<!-- Generator: Adobe Illustrator 24.1.1, SVG Export Plug-In . SVG Version: 6.00 Build 0)  -->
<svg version="1.1" id="Layer_1" xmlns="http://www.w3.org/2000/svg" xmlns:xlink="http://www.w3.org/1999/xlink" x="0px" y="0px"
	 viewBox="0 0 20 20" style="enable-background:new 0 0 20 20;" xml:space="preserve">
<style type="text/css">
	.st0{fill:#02258B;}
</style>
<path class="st0" d="M19.5,8.7C19.5,8.7,19.5,8.7,19.5,8.7l-8.2-8.2C11,0.2,10.5,0,10,0S9,0.2,8.7,0.5L0.5,8.7c0,0,0,0,0,0
	c-0.7,0.7-0.7,1.9,0,2.6c0.3,0.3,0.8,0.5,1.2,0.5c0,0,0,0,0.1,0h0.3v6c0,1.2,1,2.2,2.2,2.2h3.2c0.3,0,0.6-0.3,0.6-0.6v-4.7
	c0-0.5,0.4-1,1-1h1.9c0.5,0,1,0.4,1,1v4.7c0,0.3,0.3,0.6,0.6,0.6h3.2c1.2,0,2.2-1,2.2-2.2v-6h0.3c0.5,0,1-0.2,1.3-0.5
	C20.2,10.6,20.2,9.4,19.5,8.7z M18.6,10.5c-0.1,0.1-0.3,0.2-0.5,0.2h-0.9c-0.3,0-0.6,0.3-0.6,0.6v6.6c0,0.5-0.4,1-1,1h-2.6v-4.1
	c0-1.2-1-2.2-2.2-2.2H9.1c-1.2,0-2.2,1-2.2,2.2v4.1H4.3c-0.5,0-1-0.4-1-1v-6.6c0-0.3-0.3-0.6-0.6-0.6H1.9c0,0,0,0,0,0
	c-0.2,0-0.3-0.1-0.5-0.2c-0.3-0.3-0.3-0.7,0-0.9c0,0,0,0,0,0l0,0l8.2-8.2C9.7,1.2,9.8,1.2,10,1.2c0.2,0,0.3,0.1,0.5,0.2l8.2,8.2
	c0,0,0,0,0,0C18.9,9.8,18.9,10.2,18.6,10.5z"/>
</svg>
