<?xml version="1.0" encoding="utf-8"?>
<!-- Generator: Adobe Illustrator 21.1.0, SVG Export Plug-In . SVG Version: 6.00 Build 0)  -->
<svg version="1.1" id="Layer_1" xmlns="http://www.w3.org/2000/svg" xmlns:xlink="http://www.w3.org/1999/xlink" x="0px" y="0px"
	 viewBox="0 0 9.8 17.3" style="enable-background:new 0 0 9.8 17.3;" xml:space="preserve">
<style type="text/css">
	.st0{fill:#01235E;}
</style>
<path class="st0" d="M0.2,15.9c0,0.3,0.1,0.5,0.3,0.7c0.2,0.2,0.4,0.3,0.7,0.3c0.3,0,0.6-0.1,0.8-0.3l7.5-7.4C9.7,9,9.8,8.7,9.8,8.5
	c0-0.3-0.1-0.5-0.3-0.7L1.9,0.3C1.8,0.1,1.5,0,1.2,0l0,0C0.9,0,0.7,0.1,0.5,0.3C0.3,0.5,0.2,0.8,0.2,1.1c0,0.3,0.1,0.5,0.3,0.7
	l6.8,6.7l-6.8,6.7C0.2,15.4,0.1,15.7,0.2,15.9z M1.2,0.5L1.2,0.5L1.2,0.5L1.2,0.5z"/>
</svg>
