<?xml version="1.0" encoding="utf-8"?>
<!-- Generator: Adobe Illustrator 21.1.0, SVG Export Plug-In . SVG Version: 6.00 Build 0)  -->
<svg version="1.1" id="Layer_1" xmlns="http://www.w3.org/2000/svg" xmlns:xlink="http://www.w3.org/1999/xlink" x="0px" y="0px"
	 viewBox="0 0 232.5 202.5" style="enable-background:new 0 0 232.5 202.5;" xml:space="preserve">
<style type="text/css">
	.st0{fill:#FFFFFF;}
	.st1{fill:#004EC5;}
</style>
<g>
	<path class="st0" d="M94.9,93c-0.3-0.2-0.8-0.1-1,0.3c-0.1,0.1-0.1,0.3-0.1,0.5c0,0.2,0.2,0.3,0.3,0.4c2.2,1.3,3.1,3.4,2.4,5.7
		c-0.7,2.2-2.7,3.6-5.1,3.6c-2.4,0-4.4-1.5-5.1-3.8c-0.7-2.3,0.2-4.4,2.3-5.5c0.3-0.1,0.4-0.5,0.3-0.8s-0.4-0.5-0.7-0.5
		c0,0-0.1,0-0.1,0c-0.1,0-0.1,0-0.2,0.1c-3.1,1.6-3.7,4.8-3,7.2c0.7,2.4,3,4.8,6.4,4.8c3.5,0,5.7-2.3,6.5-4.6
		C98.7,97.9,98.1,94.8,94.9,93z"/>
	<path class="st0" d="M92,97.7c0.1-0.1,0.2-0.3,0.2-0.5v-6c0-0.3-0.1-0.4-0.2-0.5c-0.1-0.1-0.3-0.2-0.5-0.2c-0.1,0-0.3,0.1-0.5,0.2
		c-0.2,0.2-0.2,0.4-0.2,0.5v6c0,0.2,0.1,0.4,0.2,0.5C91.3,97.9,91.7,97.9,92,97.7z"/>
</g>
<path class="st1" d="M100,4.1C47,7.5,5.5,89.5,5.5,142s48.9,57,99,57S227,173,227,120.5S148.2,1,100,4.1z"/>
<g>
	<path class="st0" d="M143.1,83.4l-14-14c-0.4-0.4-1-0.7-1.7-0.7H89.9c-3.9,0-7,3.1-7,7V78h4.7v-2.3c0-1.3,1-2.3,2.3-2.3H125v9.4
		c0,2.6,2.1,4.7,4.7,4.7h9.4v49.2c0,1.3-1,2.3-2.3,2.3H94.6v4.7h42.1c3.9,0,7-3.1,7-7V85.1C143.8,84.4,143.5,83.8,143.1,83.4z"/>
	<rect x="92.2" y="78" class="st0" width="4.7" height="4.7"/>
	<rect x="101.6" y="78" class="st0" width="4.7" height="4.7"/>
	<rect x="92.2" y="87.4" class="st0" width="23.4" height="4.7"/>
	<path class="st0" d="M92.2,110.8c0,1.3,1,2.3,2.3,2.3h9.4c1.3,0,2.3-1,2.3-2.3v-9.4c0-1.3-1-2.3-2.3-2.3h-9.4c-1.3,0-2.3,1-2.3,2.3
		V110.8z M96.9,103.8h4.7v4.7h-4.7V103.8z"/>
	<path class="st0" d="M103.9,131.9c1.3,0,2.3-1,2.3-2.3v-9.4c0-1.3-1-2.3-2.3-2.3h-9.4c-1.3,0-2.3,1-2.3,2.3v9.4
		c0,1.3,1,2.3,2.3,2.3H103.9z M96.9,122.5h4.7v4.7h-4.7V122.5z"/>
	<rect x="111" y="99.1" class="st0" width="18.7" height="4.7"/>
	<rect x="111" y="108.5" class="st0" width="4.7" height="4.7"/>
	<rect x="120.3" y="108.5" class="st0" width="4.7" height="4.7"/>
	<rect x="111" y="117.8" class="st0" width="18.7" height="4.7"/>
	<rect x="111" y="127.2" class="st0" width="4.7" height="4.7"/>
	<rect x="120.3" y="127.2" class="st0" width="4.7" height="4.7"/>
	<path class="st0" d="M82.6,84c-0.6-1.2-2-1.6-3.1-1.1c-0.5,0.2-0.8,0.6-1.1,1.1l-4.7,9.4c-0.2,0.3-0.2,0.7-0.2,1.1v46.8
		c0,1.3,1,2.3,2.3,2.3h9.4c1.3,0,2.3-1,2.3-2.3V94.4c0-0.4-0.1-0.7-0.3-1.1L82.6,84z M82.9,138.9h-4.7v-4.7h4.7V138.9z M82.9,129.5
		h-4.7V96.8h4.7V129.5z"/>
</g>
</svg>
