<?xml version="1.0" encoding="utf-8"?>
<!-- Generator: Adobe Illustrator 21.1.0, SVG Export Plug-In . SVG Version: 6.00 Build 0)  -->
<svg version="1.1" id="Graphics" xmlns="http://www.w3.org/2000/svg" xmlns:xlink="http://www.w3.org/1999/xlink" x="0px" y="0px"
	 viewBox="0 0 306.6 165.8" style="enable-background:new 0 0 306.6 165.8;" xml:space="preserve">
<style type="text/css">
	.st0{fill:none;}
	.st1{fill:none;stroke:#FFFFFF;stroke-width:0.3;}
	.st2{fill:#F15E7D;}
	.st3{fill:#FFFFFF;}
	.st4{fill:#623FE9;}
	.st5{fill:#4A2FAF;}
	.st6{fill:#5DDAF4;}
	.st7{fill:url(#SVGID_1_);}
	.st8{fill:#56408B;}
	.st9{fill:#004EC5;}
	.st10{fill:#4D5068;}
	.st11{fill:#413068;}
	.st12{fill:#7866A2;}
	.st13{opacity:0.5;}
	.st14{fill:#211834;}
	.st15{opacity:0.1;fill:#191C3C;}
	.st16{opacity:0.3;fill:#191C3C;}
	.st17{fill:#01235E;}
	.st18{opacity:0.3;fill:#525D7A;}
	.st19{fill:url(#XMLID_2_);}
	.st20{fill:#F1F2F2;}
	.st21{opacity:0.15;fill:#525D7A;}
	.st22{fill:#002A86;}
	.st23{opacity:0.2;}
	.st24{fill:#2B2046;}
	.st25{opacity:0.2;fill:#2B2046;}
	.st26{opacity:0.15;}
	.st27{fill:#525D7A;}
	.st28{fill:#7DE1F6;}
	.st29{opacity:7.000000e-02;}
	.st30{opacity:0.3;fill:#2B2046;}
	.st31{fill:#FAB300;}
	.st32{fill:#EFCBF1;}
	.st33{fill:#38D1D0;}
	.st34{fill:#19ABB9;}
	.st35{opacity:0.2;fill:#525D7A;}
	.st36{fill:url(#Random_V);}
	.st37{fill:#F6F6F6;}
</style>
<pattern  x="-160" y="-187" width="72" height="72" patternUnits="userSpaceOnUse" id="Random_V" viewBox="5.4 -76.8 72 72" style="overflow:visible;">
	<g>
		<rect x="5.4" y="-76.8" class="st0" width="72" height="72"/>
		<g>
			<polyline class="st1" points="54.1,-48.9 47.4,-51.7 49.4,-44.6 			"/>
			<polyline class="st1" points="38.2,-58.2 45.3,-61.8 38.6,-63.8 			"/>
			<polyline class="st1" points="55.5,-50.5 61.7,-54.1 55.4,-57.9 			"/>
			<polyline class="st1" points="35.4,-48.3 35.1,-56 29.8,-51.5 			"/>
			<polyline class="st1" points="65.6,-32.5 72.1,-29.3 70.5,-36.5 			"/>
			<polyline class="st1" points="63.6,-17 63.6,-24.2 57.8,-19.6 			"/>
			<polyline class="st1" points="58.3,-32 58.2,-24.8 64.1,-29.3 			"/>
			<polyline class="st1" points="51.9,-39.1 59.1,-39.5 54.2,-45 			"/>
			<polyline class="st1" points="48.8,-33.1 54.6,-28.8 54.4,-36.2 			"/>
			<polyline class="st1" points="37.6,-24.9 34.2,-29.4 32.1,-24.2 			"/>
			<polyline class="st1" points="38.7,-35.5 45.4,-32.7 42.6,-39.5 			"/>
			<polyline class="st1" points="21.7,-23.2 19.1,-30.4 14.8,-24.3 			"/>
			<polyline class="st1" points="39.9,-49.1 39.4,-42.9 45.7,-46.5 			"/>
			<polyline class="st1" points="13.8,-57.3 20.1,-53.8 18.9,-61.1 			"/>
			<polyline class="st1" points="31.8,-36.2 26.2,-40.8 26.1,-33.3 			"/>
			<polyline class="st1" points="29.9,-56 24.1,-62.1 23.4,-53.9 			"/>
			<polyline class="st1" points="30.6,-21.5 33,-14.8 37.7,-22.6 			"/>
			<polyline class="st1" points="48.3,-62.7 48.6,-54.5 53.7,-59.9 			"/>
			<polyline class="st1" points="23.4,-39.1 16.9,-40.5 19.9,-33.7 			"/>
			<polyline class="st1" points="68.6,-27.1 66.4,-20.3 73.3,-22.8 			"/>
			<polyline class="st1" points="63.6,-40.1 60.3,-33.9 66.9,-34.6 			"/>
			<polyline class="st1" points="59,-67.8 66.2,-67.7 61.7,-73.6 			"/>
			<polyline class="st1" points="70.2,-72.8 70.2,-65.5 76,-70.1 			"/>
			<polyline class="st1" points="32,-39.6 36,-45.6 28.6,-44.9 			"/>
			<polyline class="st1" points="45.4,-56.3 38.1,-56.4 42.6,-50.5 			"/>
			<polyline class="st1" points="36.1,-7.3 39.2,-15.1 31.6,-11.9 			"/>
			<polyline class="st1" points="71.8,-61.7 65.4,-65 66.9,-57.7 			"/>
			<polyline class="st1" points="40.4,-26.8 46.8,-24.1 44.1,-31 			"/>
			<polyline class="st1" points="48.1,-26.4 55.1,-24.5 49.1,-20.1 			"/>
			<polyline class="st1" points="27,-53.6 23.4,-47.3 30.5,-47.5 			"/>
			<polyline class="st1" points="63.4,-14.4 57,-11 63.7,-8 			"/>
			<polyline class="st1" points="53.4,-19.9 52.7,-12.7 59,-16.7 			"/>
			<polyline class="st1" points="47.5,-71.9 45.7,-64.2 52.5,-67.6 			"/>
			<polyline class="st1" points="65.6,-14.9 72.3,-12.1 70.3,-19.2 			"/>
			<polyline class="st1" points="17.1,-51.8 10.3,-54.5 13.4,-47.5 			"/>
			<polyline class="st1" points="26.6,-15 27.3,-24.1 20.8,-19.6 			"/>
			<polyline class="st1" points="18.1,-19.9 11.7,-23.3 13.1,-16 			"/>
			<polyline class="st1" points="29.1,-73.6 27.4,-67.4 34.5,-69.5 			"/>
			<polyline class="st1" points="11.4,-66.5 11.3,-59.2 17.1,-63.7 			"/>
			<polyline class="st1" points="17,-17.2 19.9,-10.5 23.4,-17 			"/>
			<polyline class="st1" points="23.3,-33.5 24.2,-26.3 30.1,-31.3 			"/>
			<polyline class="st1" points="44.4,-10.6 50.9,-7.3 49.6,-15.5 			"/>
			<polyline class="st1" points="73.1,-43.5 66.7,-47.1 67.4,-40.2 			"/>
			<polyline class="st1" points="64.7,-55.2 68.9,-49.3 71,-56.4 			"/>
			<polyline class="st1" points="57.9,-48 60.6,-43 63.7,-49.7 			"/>
			<polyline class="st1" points="13,-75 7,-70.9 14.1,-68.8 			"/>
			<polyline class="st1" points="54,-64.5 57.8,-70.7 52.4,-70.8 			"/>
			<polyline class="st1" points="12.3,-13.6 9.3,-7 16.5,-8.8 			"/>
			<polyline class="st1" points="31.1,-7.1 24.9,-10.9 25.9,-3.5 			"/>
			<polyline class="st1" points="46,-20.5 40.1,-19.5 45.3,-14.1 			"/>
			<polyline class="st1" points="52.3,-41.5 45.1,-42 49.3,-35.9 			"/>
			<polyline class="st1" points="49.3,-3 43.5,-7.4 43.6,0 			"/>
			<polyline class="st1" points="60.6,-65.9 56.6,-59.9 64,-60.6 			"/>
			<polyline class="st1" points="17.4,-70.6 21,-64.3 23.7,-71.2 			"/>
			<polyline class="st1" points="11,-27.6 16.9,-31.7 9.8,-33.9 			"/>
			<polyline class="st1" points="19.9,-41.4 21.5,-49.9 14.2,-44.4 			"/>
			<polyline class="st1" points="12.7,-41.2 7.6,-37.1 15,-36.3 			"/>
			<polyline class="st1" points="63,-5.9 68.6,-1.4 69.2,-10.3 			"/>
			<polyline class="st1" points="33.1,-7.1 36.4,-0.6 39.5,-7.3 			"/>
			<polyline class="st1" points="58.8,-0.2 57.8,-7.4 52.7,-2.1 			"/>
			<polyline class="st1" points="21.1,-1 20.5,-8.2 15.1,-3.2 			"/>
			<polyline class="st1" points="43.8,-67.5 39.3,-73.2 37.4,-66 			"/>
			<polyline class="st1" points="78.3,-43.1 77,-35.9 72.1,-41.5 			"/>
			<polyline class="st1" points="72.6,-52 79,-55.5 72.1,-58.4 			"/>
			<polyline class="st1" points="80.1,-51.5 75.2,-46.2 82.5,-45.6 			"/>
			<polyline class="st1" points="79.9,-3.3 74.8,-8.4 73.9,-1.1 			"/>
			<polyline class="st1" points="77.4,-59 80.7,-65.5 73.4,-64 			"/>
			<polyline class="st1" points="77.9,-11.6 82.1,-17.5 74.7,-17.1 			"/>
			<polyline class="st1" points="81.2,-26.1 75.6,-21.5 82.9,-19.9 			"/>
			<polyline class="st1" points="77.7,-26.4 75.2,-33.2 82.2,-30.9 			"/>
			<polyline class="st1" points="36.2,-60.2 32.8,-66.6 29.8,-59.8 			"/>
			<polyline class="st1" points="35.9,-38.2 32.4,-32.9 37.5,-32.3 			"/>
		</g>
		<g>
			<polyline class="st1" points="6.3,-43.1 5,-35.9 0.1,-41.5 			"/>
			<polyline class="st1" points="0.6,-52 7,-55.5 0.1,-58.4 			"/>
			<polyline class="st1" points="8.1,-51.5 3.2,-46.2 10.5,-45.6 			"/>
			<polyline class="st1" points="7.9,-3.3 2.8,-8.4 1.9,-1.1 			"/>
			<polyline class="st1" points="5.4,-59 8.7,-65.5 1.4,-64 			"/>
			<polyline class="st1" points="5.9,-11.6 10.1,-17.5 2.7,-17.1 			"/>
			<polyline class="st1" points="9.2,-26.1 3.6,-21.5 10.9,-19.9 			"/>
			<polyline class="st1" points="5.7,-26.4 3.2,-33.2 10.2,-30.9 			"/>
		</g>
		<g>
			<polyline class="st1" points="31.1,-79.1 24.9,-82.9 25.9,-75.5 			"/>
			<polyline class="st1" points="49.3,-75 43.5,-79.4 43.6,-72 			"/>
			<polyline class="st1" points="63,-77.9 68.6,-73.4 69.2,-82.3 			"/>
			<polyline class="st1" points="33.1,-79.1 36.4,-72.6 39.5,-79.3 			"/>
			<polyline class="st1" points="58.8,-72.2 57.8,-79.4 52.7,-74.1 			"/>
			<polyline class="st1" points="21.1,-73 20.5,-80.2 15.1,-75.2 			"/>
			<polyline class="st1" points="79.9,-75.3 74.8,-80.4 73.9,-73.1 			"/>
		</g>
		<g>
			<polyline class="st1" points="7.9,-75.3 2.8,-80.4 1.9,-73.1 			"/>
		</g>
	</g>
</pattern>
<g id="Layer_6">
	<g id="XMLID_30_">
		<g id="XMLID_1693_">
			<path id="XMLID_1683_" class="st2" d="M305.1,145.7v-13.3c0-0.4-0.3-0.7-0.7-0.7h-77c-0.4,0-0.7,0.3-0.7,0.7v13.3
				c0,0.4,0.3,0.7,0.7,0.7h77C304.8,146.4,305.1,146.1,305.1,145.7z"/>
			
				<rect id="XMLID_1684_" x="232.7" y="136.7" transform="matrix(-1.836970e-16 1 -1 -1.836970e-16 373.3543 -96.0109)" class="st3" width="3.9" height="3.9"/>
			
				<rect id="XMLID_1685_" x="240.5" y="136.7" transform="matrix(-1.836970e-16 1 -1 -1.836970e-16 381.1455 -103.8021)" class="st3" width="3.9" height="3.9"/>
			
				<rect id="XMLID_1686_" x="248.3" y="136.7" transform="matrix(-1.836970e-16 1 -1 -1.836970e-16 388.937 -111.5935)" class="st3" width="3.9" height="3.9"/>
			
				<rect id="XMLID_1687_" x="256.1" y="136.7" transform="matrix(-1.836970e-16 1 -1 -1.836970e-16 396.7281 -119.3847)" class="st3" width="3.9" height="3.9"/>
			
				<rect id="XMLID_1688_" x="263.9" y="136.7" transform="matrix(-1.836970e-16 1 -1 -1.836970e-16 404.5193 -127.1759)" class="st3" width="3.9" height="3.9"/>
			
				<rect id="XMLID_1689_" x="271.7" y="136.7" transform="matrix(-1.836970e-16 1 -1 -1.836970e-16 412.3106 -134.9672)" class="st3" width="3.9" height="3.9"/>
			
				<rect id="XMLID_1690_" x="279.5" y="136.7" transform="matrix(-1.836970e-16 1 -1 -1.836970e-16 420.1019 -142.7585)" class="st3" width="3.9" height="3.9"/>
			
				<rect id="XMLID_1691_" x="287.3" y="136.7" transform="matrix(-1.836970e-16 1 -1 -1.836970e-16 427.8931 -150.5497)" class="st3" width="3.9" height="3.9"/>
			
				<rect id="XMLID_1692_" x="295.1" y="136.7" transform="matrix(-1.836970e-16 1 -1 -1.836970e-16 435.6843 -158.3409)" class="st3" width="3.9" height="3.9"/>
		</g>
		<g id="XMLID_1698_">
			<path id="XMLID_1695_" class="st4" d="M221.1,160.5v-13.7c0-0.3,0.2-0.5,0.5-0.5h83c0.3,0,0.5,0.2,0.5,0.5v13.7
				c0,0.3-0.2,0.5-0.5,0.5h-83C221.3,161,221.1,160.7,221.1,160.5z"/>
			<path class="st5" d="M221.1,146.7v4.2h84v-4.2c0-0.3-0.2-0.5-0.5-0.5h-83C221.3,146.2,221.1,146.4,221.1,146.7z"/>
			
				<rect id="XMLID_1696_" x="229.8" y="147.7" transform="matrix(-1.836970e-16 1 -1 -1.836970e-16 390.721 -83.5395)" class="st3" width="14.7" height="11.7"/>
			
				<rect id="XMLID_1697_" x="281.7" y="147.7" transform="matrix(-1.836970e-16 1 -1 -1.836970e-16 442.6651 -135.4836)" class="st3" width="14.7" height="11.7"/>
		</g>
		<g id="XMLID_1694_">
			<path id="XMLID_1681_" class="st3" d="M305.1,131.1v-19.7c0-0.3-0.3-0.6-0.6-0.6H217c-0.3,0-0.6,0.3-0.6,0.6v19.7
				c0,0.3,0.3,0.6,0.6,0.6h87.6C304.9,131.7,305.1,131.4,305.1,131.1z"/>
			<path id="XMLID_1682_" class="st6" d="M299,124.1v-5.7c0-0.2-0.1-0.3-0.3-0.3H227c-0.2,0-0.3,0.1-0.3,0.3v5.7
				c0,0.2,0.1,0.3,0.3,0.3h71.8C298.9,124.4,299,124.3,299,124.1z"/>
		</g>
	</g>
	<g>
		<g>
			<linearGradient id="SVGID_1_" gradientUnits="userSpaceOnUse" x1="19.4597" y1="147.2602" x2="20.596" y2="117.7169">
				<stop  offset="0" style="stop-color:#623FE9"/>
				<stop  offset="2.623045e-02" style="stop-color:#6244E9"/>
				<stop  offset="0.3667" style="stop-color:#6084EE"/>
				<stop  offset="0.654" style="stop-color:#5EB3F1"/>
				<stop  offset="0.8739" style="stop-color:#5DCFF3"/>
				<stop  offset="1" style="stop-color:#5DDAF4"/>
			</linearGradient>
			<path class="st7" d="M22.9,145.2c-0.1,0-0.1,0.1-0.2,0.1c-1.7,0.8-2.6,0.7-4.3-0.1c-1.6-0.7-3.1-1.6-4.3-2.7
				c-1.6-1.4-2.9-3.4-3.2-5.5c-0.1-0.5-0.1-1,0.2-1.4c0.4-0.5,1.2-0.6,1.8-0.4c0.6,0.2,1.1,0.7,1.6,1.2c0.2,0.2,0.4,0.4,0.7,0.5
				c0.3,0.1,0.6,0,0.8-0.3c0.2-0.4-0.2-0.8-0.5-1.1c-0.8-0.7-1.6-1.1-2.4-1.7c-1.1-0.7-2-1.7-2.6-2.8c-0.6-1.2-0.7-2.6-0.1-3.8
				c0.2-0.3,0.4-0.7,0.8-0.9c0.6-0.4,1.4-0.4,2-0.2c0.7,0.1,1.3,0.4,2,0.5c1.6,0.2,2.3-1,2.3-2.5c0-1-0.4-2-0.4-3
				c-0.1-1.8,0.8-3.7,2.4-4.5c1.6-0.8,3.9,0,4.5,1.7c0.6,1.8-0.8,3.9,0.1,5.7c0.3,0.6,1,1.4,1.6,1.7c0.9,0.6,2.2-0.1,3.3-0.1
				c0.2,0,0.5,0,0.7,0.2c0.1,0.1,0.2,0.3,0.2,0.5c0.2,1.3-0.2,2.7-1.2,3.6c-1.1,1-3,1.5-3.4,3.1c-0.3,1-0.2,3.4,1.4,3.1
				c0.6-0.1,1-0.7,1.5-0.8c0.7-0.2,1.5,0.2,1.8,0.9c0.3,0.7,0.2,1.4-0.1,2.1c-0.4,1.1-1.2,1.9-2,2.7
				C26.1,142.5,25.1,144.1,22.9,145.2z"/>
		</g>
		<g>
			<rect x="20.3" y="122.7" class="st8" width="0.8" height="37.5"/>
		</g>
		<g>
			<polygon class="st8" points="20.6,134.1 16,129.5 16.5,129 20.6,133 24.7,129 25.2,129.5 			"/>
		</g>
		<g>
			<polygon class="st8" points="20.6,142.9 16,138.2 16.5,137.7 20.6,141.8 24.7,137.7 25.2,138.2 			"/>
		</g>
	</g>
	<g>
		<g>
			<path class="st2" d="M40.5,134c-0.1,0-0.2,0.1-0.2,0.1c-2.4,1.2-3.7,1-6.1-0.1c-2.2-1-4.3-2.2-6.1-3.8c-2.3-2-4-4.7-4.4-7.7
				c-0.1-0.7-0.1-1.4,0.3-2c0.6-0.8,1.7-0.9,2.6-0.5c0.9,0.3,1.6,1,2.3,1.6c0.3,0.3,0.6,0.5,1,0.6c0.4,0.1,0.9,0,1-0.4
				c0.3-0.6-0.2-1.2-0.7-1.6c-1.1-0.9-2.2-1.5-3.4-2.3c-1.5-1-2.9-2.3-3.7-4c-0.8-1.6-1-3.6-0.1-5.3c0.3-0.5,0.6-0.9,1.1-1.2
				c0.8-0.5,1.9-0.5,2.9-0.3c1,0.2,1.9,0.6,2.9,0.7c2.3,0.2,3.2-1.4,3.2-3.5c0-1.4-0.5-2.8-0.6-4.2c-0.1-2.5,1.1-5.2,3.4-6.2
				c2.3-1.1,5.4,0,6.2,2.3c0.9,2.6-1.1,5.5,0.2,7.9c0.4,0.8,1.4,1.9,2.2,2.4c1.3,0.8,3.1-0.1,4.6-0.1c0.3,0,0.7,0.1,0.9,0.3
				c0.2,0.2,0.2,0.4,0.3,0.7c0.3,1.8-0.3,3.7-1.6,5c-1.5,1.4-4.2,2.1-4.8,4.3c-0.4,1.3-0.2,4.7,1.9,4.4c0.8-0.1,1.3-0.9,2.1-1.2
				c1-0.3,2.1,0.3,2.5,1.2c0.4,0.9,0.3,2-0.1,2.9c-0.6,1.5-1.7,2.7-2.8,3.8C45,130.2,43.5,132.5,40.5,134z"/>
		</g>
		<g>
			<rect x="36.9" y="102.6" class="st8" width="0.8" height="57.6"/>
		</g>
		<g>
			<polygon class="st8" points="37.3,118.3 30.9,111.9 31.5,111.4 37.3,117.2 43.1,111.4 43.6,111.9 			"/>
		</g>
		<g>
			<polygon class="st8" points="37.3,130.5 30.9,124.2 31.5,123.6 37.3,129.4 43.1,123.6 43.6,124.2 			"/>
		</g>
	</g>
	<g>
		<rect x="249.1" y="144.5" class="st3" width="5.9" height="7.7"/>
		<rect x="296.9" y="144.5" class="st3" width="5.9" height="7.7"/>
		<polygon class="st9" points="271.4,78 263,80.2 261.3,97.7 263.6,120.8 286.1,121.3 287.7,98.5 286.3,80.3 280.8,78 		"/>
		<path class="st10" d="M254.7,126.6l4.9,4.3c1.4,1.3,3.2,2,5.1,2h18.7c1.7,0,3.4-0.6,4.7-1.6l7.4-5.8l-0.9-12.8l-15.7,6.6h-10.5
			l-13.6-7.4l-1.5,4.7L254.7,126.6z"/>
		<path class="st11" d="M254.7,126.6l4.9,4.3c1.4,1.3,3.2,2,5.1,2h18.7c1.7,0,3.4-0.6,4.7-1.6l7.4-5.8l-0.9-12.8l-15.7,6.6h-10.5
			l-13.6-7.4l-1.5,4.7L254.7,126.6z"/>
		<path class="st3" d="M249,150.6c0,0-0.5,4.3-3.9,8.2v1.9h11.4l0.2-2.6c0,0-1.7-4.2-1.8-6.2C254.9,151.9,254.4,149,249,150.6z"/>
		<path class="st11" d="M256.7,158.8c0,0-9.5-0.6-11.6,0.1v1.9h11.4L256.7,158.8z"/>
		<g>
			<rect x="249.1" y="152.5" class="st8" width="3.2" height="1"/>
		</g>
		<g>
			<rect x="248.8" y="153.7" class="st8" width="3.2" height="1"/>
		</g>
		<g>
			<rect x="248.2" y="155.2" class="st8" width="3.2" height="1"/>
		</g>
		<path class="st3" d="M302.7,150.6c0,0,0.5,4.3,3.9,8.2v1.9h-11.4l-0.2-2.6c0,0,1.7-4.2,1.8-6.2C296.8,151.9,297.4,149,302.7,150.6
			z"/>
		<path class="st11" d="M295,158.8c0,0,9.5-0.6,11.6,0.1v1.9h-11.4L295,158.8z"/>
		<g>
			<rect x="299.5" y="152.5" class="st8" width="3.2" height="1"/>
		</g>
		<g>
			<rect x="299.7" y="153.7" class="st8" width="3.2" height="1"/>
		</g>
		<g>
			<rect x="300.3" y="155.2" class="st8" width="3.2" height="1"/>
		</g>
		<path class="st11" d="M249.1,149.9h6.4c0,0,1.6-25.8,0.8-36.1c-0.1-1.1-1-1.9-2.1-1.9H252c-4.2,0-7.1,3.5-7.4,7.6
			C243.9,130.3,249.1,149.9,249.1,149.9z"/>
		<path class="st11" d="M302.7,150.6h-6.4c0,0-3.7-26.2-3.1-36.3c0.1-0.9,0.8-1.7,1.8-1.7h2.5c4.2,0,7.5,3.5,7.4,7.6
			C304.5,130.5,302.7,150.6,302.7,150.6z"/>
		<g id="XMLID_4_">
			<path id="XMLID_6_" class="st12" d="M274.9,114.3l-8.6-0.8c-0.3,0-0.5-0.2-0.5-0.5v-12.1c0-0.3,0.2-0.5,0.5-0.5l8.6,0.8V114.3z"
				/>
			<path id="XMLID_5_" class="st8" d="M274.9,114.3l8.6-0.8c0.3,0,0.5-0.2,0.5-0.5v-12.1c0-0.3-0.2-0.5-0.5-0.5l-8.6,0.8V114.3z"/>
		</g>
		<g class="st13">
			<path class="st14" d="M297.9,125.4c0.1,0,0.3,0,0.4,0c-0.9,0-2-0.7-2.5-1.5c-0.4-0.8,0.1-2.4-0.9-2.6c-0.8-0.2-3.2,1.6-4,2
				c-1.4,0.7-2.7,1.4-4.1,2.1c-1.2,0.6-2.4,1.2-3.8,1.5c-2.4,0.4-4.7-0.4-7.1-0.5c-1.8-0.1-3.6,0.3-5.4,0c-0.9-0.2-1.8-0.5-2.6-0.9
				c-3.6-1.5-7.2-3.4-11-4.1c-0.5-0.1-1.9-0.7-2.2-0.3c-0.4,0.4,0.3,2.5,0.4,3c-0.5-0.9-1.2-1.6-2.1-2.1c0.2,2.5,1,5,2.1,7.2
				c-0.7-0.5-1.3-1.1-2-1.6c0.5,1.1,1.4,1.8,1.9,2.9c0.6,1.3,0.3,3.3,0.4,4.7c0,0.3,0,0.7-0.3,0.9c-0.6-0.9-1.4-1.7-2.3-2.2
				c0.5,1.1,0.8,2.3,0.9,3.5c-0.8-0.4-1.4-0.9-1.9-1.6c-0.2-0.3-0.5-0.7-0.9-0.5c-0.3,0.1-0.3,0.6-0.2,0.9c0.1,0.6,0.2,1.3,0.5,1.8
				c0.9,1.4,2.7,2,3.7,3.4c0.3,0.5,0.7,0.9,1.1,1.3c0.2-4,0.4-9.1,0.5-14.1l3.1,2.8c1.4,1.3,3.2,2,5.1,2h18.7c1.7,0,3.4-0.6,4.7-1.6
				l5.6-4.4c0.4,5.5,1.1,11.4,1.7,16c0-0.1,0.1-0.2,0.1-0.3c0.3,0.2,0.6,0.4,0.9,0.6c0.4-1.7,0.4-3.9-0.4-5.4
				c-0.1-0.3-0.3-0.5-0.4-0.8c-0.4-0.8-0.3-1.7-0.1-2.5c0.6,0.5,1.2,0.9,1.8,1.2c0.1,0.1,0.4,0.1,0.4,0c-0.2-1.6-1.4-3-2.3-4.3
				c1.2-0.4,2.4-0.5,3.6-0.4l0.3-0.2C297.8,129.4,297.3,127.2,297.9,125.4z"/>
		</g>
		<path class="st15" d="M263.6,97.6c0.6,0.1,1.4,0.3,1,0c-1.2-0.8-2.9-2.1-3.9-3l0.2,1.5c0.2,0.2,0.4,0.3,0.5,0.5
			c-0.2,0-0.4,0.1-0.5,0.3l0.1,0.8c0.1,0.1,0.3,0,0.6,0.2c0,0-0.1,0-0.1,0c-0.2,0-0.3,0.1-0.4,0.2l0.1,0.7c0.1,0,0.1,0.1,0.2,0.1
			c0,0,0,0,0,0c-0.1,0-0.1,0.1-0.2,0.2l1,9.4c0.1,1,0.2,1.9,0.3,2.9l0.5,4.9c0.2,0,0.5-0.2,0.5-0.5c0.2-3.3-0.1-6.6-0.7-9.8
			c-0.4-2-0.5-3.8-0.4-5.8c0-1.1,1.3-0.2,1.1-0.8c0-0.1-0.9-1.1-1-1.2C261.8,97,262.6,97.3,263.6,97.6z"/>
		<path class="st3" d="M265.7,103.8l-1.4-0.1l-2.5,2.5h-5l2.1-5.3l-7.1-1.2l-3.2,10c-0.4,1.2,0.5,2.4,1.8,2.4l11.1-0.4l3.1,1l3.2-1
			l2.9-1.6l0.3-2.7c0-0.4-0.2-0.7-0.6-0.7h-3.1l-2-1h0.4V103.8z"/>
		<polygon class="st16" points="251.4,100.9 258.4,102.1 258.9,100.9 251.8,99.7 		"/>
		<path class="st9" d="M265,86l6.4-8.1l-10.2,2.6c-2.5,0.6-4.5,2.5-5.4,4.9l-5.1,14l9.4,1.5L265,86z"/>
		<path class="st15" d="M287.3,104.2l0.4-5.8l0-0.3c-0.1,0-0.1,0-0.2,0c-0.1,0-0.2,0-0.3,0.1c0.1-0.2,0.3-0.4,0.4-0.6l-0.1-1
			c-0.4,0,0.1-0.2-0.3-0.1c0.4-0.3-0.2-0.4,0.2-0.7l-0.1-1.1c-0.9,0.8-1.8,1.6-2.9,2.2c-0.3,0.2,0.4,0.3,0.8,0.2
			c0.5,0,0.5,0.5,1,0.4c-0.1,0.3-0.2,0.7-0.3,1c-0.1,0.3,0,0.6,0.4,0.6c-0.1,0.1-0.3,0.8-0.4,0.9c-0.4,0.4,0.2,0.3,0.7,0.1
			c0.1,0,0.3-0.1,0.4-0.1c-0.1,0.1-0.2,0.3-0.3,0.4c-0.1,0.1-0.1,0.3-0.1,0.5c-0.2,0.2-0.7,1.3-0.9,1.6c-0.3,0.3,0.3,0,0.7-0.3
			c0.2-0.1,0.3-0.2,0.5-0.4c-0.1,0.2-0.2,0.4-0.3,0.6c-0.1,0.2,0.1,0.8,0.3,1c-0.4,0.7-0.9,1.1-1.2,1.8c-0.1,0.2,0,0.4,0.2,0.6
			c0.1,0.1,0.3,0.2,0.4,0.3c0.1,0.1,0.3,0.1,0.4,0c-0.3,0.2-0.6,4.1-0.7,4.8c-0.2,1.2-0.3,2.3-0.3,3.5c0,0.5,0.6,0.5,0.8,0.2
			l0.7-9.6c-0.1-0.1-0.3-0.1-0.4,0C287,105,287.1,104.7,287.3,104.2z"/>
		<path class="st3" d="M296.6,99.7l3.2,10c0.4,1.2-0.5,2.4-1.8,2.4l-10.7-0.4l-3.1,1l-3.2-1l-2.9-1.6l-0.3-2.7
			c0-0.4,0.2-0.7,0.6-0.7h3.1l2-1h-0.9l-1.1,0.2c-0.6,0.1-1.2-0.4-1.2-1.1l0,0l2.1-1.1l2.1-0.1l2.5,2.5h4.7l-2.1-5.3L296.6,99.7z"/>
		<polygon class="st16" points="296.6,99.7 289.4,100.9 289.8,101.9 296.9,100.7 		"/>
		<path class="st9" d="M283.8,86l-6.4-8.1l10.2,2.6c2.5,0.6,4.5,2.5,5.4,4.9l5.1,14l-9.4,1.5L283.8,86z"/>
		<path class="st3" d="M275,87.4L275,87.4c-2.3,0-4.2-1.9-4.2-4.2V76h8.3v7.2C279.1,85.5,277.3,87.4,275,87.4z"/>
		<g>
			<path class="st11" d="M282.2,67.8c0-0.2-0.1-0.4-0.2-0.6c-0.1-0.6,0.4-1.4,0-1.9c-0.1-0.2-0.4-0.4-0.5-0.7c-0.1-0.2,0-0.4,0-0.5
				c0.1-1.5-1.6-2.8-3-3c-0.6,0-1.1-0.4-1.6-0.4c-0.2,0-0.5,0.1-0.7,0.1c-0.5,0-0.9-0.3-1.4-0.3c-0.4,0-0.7,0.1-1.1,0.2
				c-0.5,0.2-0.9,0.5-1.3,0.8c-0.4,0.3-0.8,0.8-1.3,0.9c-0.2,0-0.4,0-0.5,0.1c-0.5,0.1-0.8,0.4-1.1,0.8c-0.3,0.4-0.4,0.8-0.7,1.2
				c-0.2,0.3-0.5,0.5-0.6,0.9c-0.1,0.3-0.1,0.6-0.2,0.8c-0.1,0.3-0.3,0.4-0.3,0.8c0,0.3,0.2,0.6,0.2,0.9c0.1,0.3,0.1,0.5,0.1,0.8
				c0,0.5,0,1.1,0,1.6c0,0.7,0,1.5,0.5,2c0.2,0.2,0.5,0.4,0.6,0.6c0.2,0.4,0,0.8,0.1,1.1c0.1,0.8,0.9,1.1,1.7,1.3
				c1.3,0.3,2.8,0.5,3.9-0.3c0.6-0.4,1.1-1.1,1.8-0.9c0.2,0,0.4,0.2,0.6,0.3c0.6,0.3,1.2,0.5,1.8,0.5c0.2,0,0.3,0,0.5,0
				c0.2,0,0.4-0.1,0.5-0.2c2.1-1.2,2.2-3.7,2.3-5.8C282.3,68.6,282.3,68.2,282.2,67.8z"/>
		</g>
		<path class="st3" d="M271.2,76.2c0,0-1.6,0.2-2.1-1.5c0,0-1.3-3.4,0-3.6c0,0,2.7,1.8,2.7,2.5C271.8,74.4,271.2,76.2,271.2,76.2z"
			/>
		<path class="st3" d="M279.7,76.2c0,0,1.6,0.2,2.1-1.5c0,0,1.3-3.4,0-3.6c0,0-2.7,1.8-2.7,2.5C279.1,74.4,279.7,76.2,279.7,76.2z"
			/>
		<path class="st16" d="M270.8,81.7c0.5,0.7,1.1,1.2,1.8,1.7c0.8,0.5,1.7,0.7,2.6,0.7c0.9,0,1.8-0.2,2.5-0.7l0.1-0.1
			c0.4-0.3,0.8-0.6,1.2-0.9V78h-8.3V81.7z"/>
		<path class="st3" d="M277.9,82l-0.1,0.1c-0.8,0.4-1.6,0.7-2.5,0.7l0,0c-0.9,0-1.8-0.3-2.6-0.7l0,0c-1.9-1.1-3-3.1-3-5.3V66.6H281
			v10.1C281,78.9,279.8,80.9,277.9,82z"/>
		<g>
			<path class="st11" d="M282,64.4c-0.2-0.3-0.6-0.6-1-0.8c-3.7-2-8.7-1.2-11.5,1.9c-0.4,0.4-0.7,0.9-1,1.4c-0.5,1.2-0.3,2.6,0,4
				l-0.2,0c0.4,0,1,0,1.3-0.2c0.3-0.2,0.4-0.5,0.4-0.8c0-0.1,0-0.2,0.1-0.3c0.1-0.1,0.2-0.1,0.3,0c0.3,0,0.6-0.1,0.8-0.4
				c0.2-0.3,0.3-0.6,0.1-0.9c0.2,0.1,0.4,0,0.6-0.2c0.4-0.4,0.1-1.1,0.5-1.5c0.6-0.5,1,0.5,1.5,0.8c0.5,0.3,1.1,0.2,1.5-0.1
				c-0.2,0.4,0.1,1,0.6,1.2c0.5,0.2,1,0,1.4-0.3c0,0.1,0.1,0.2,0.1,0.3c1.8,1.3,4.6,2,5-1C282.8,66.8,282.4,65.1,282,64.4z"/>
		</g>
	</g>
	<g id="XMLID_141_">
		<path id="XMLID_159_" class="st17" d="M225.4,161H105.6c-1.2,0-2.2-1-2.2-2.2V2.2c0-1.2,1-2.2,2.2-2.2h119.8c1.2,0,2.2,1,2.2,2.2
			v156.6C227.5,160,226.6,161,225.4,161z"/>
		<rect id="XMLID_158_" x="118.5" y="19.5" class="st3" width="94" height="118.4"/>
		<path id="XMLID_153_" class="st18" d="M199,137.9H186V19.1h15.7v116.2C201.7,136.8,200.5,137.9,199,137.9z"/>
		<path id="XMLID_9_" class="st3" d="M191.1,137.9h-72.6V19.1h79.8v111.6C198.3,134.7,195.1,137.9,191.1,137.9z"/>
		<g id="XMLID_266_">
			<path id="XMLID_267_" class="st6" d="M144,46.9h-11.4l-1.9,4.1h-4.4l9.8-21.8h4.5l9.8,21.8h-4.5L144,46.9z M138.4,33.8l-4,9.3
				h8.1L138.4,33.8z"/>
		</g>
		<linearGradient id="XMLID_2_" gradientUnits="userSpaceOnUse" x1="183.4745" y1="71.6215" x2="203.6868" y2="71.6215">
			<stop  offset="0" style="stop-color:#5DDAF4"/>
			<stop  offset="0.1261" style="stop-color:#5DCFF3"/>
			<stop  offset="0.346" style="stop-color:#5EB3F1"/>
			<stop  offset="0.6333" style="stop-color:#6084EE"/>
			<stop  offset="0.9738" style="stop-color:#6244E9"/>
			<stop  offset="1" style="stop-color:#623FE9"/>
		</linearGradient>
		<path id="XMLID_142_" class="st19" d="M198.3,131.6c0-4.6-3.4-7.3-6.6-7.3h-2.8V11.7h2.7c3.7,0,6.7,3,6.7,6.7V131.6z"/>
		<g>
			<rect x="150.4" y="10.3" class="st3" width="30.3" height="1"/>
		</g>
		<g>
			<path class="st20" d="M186,37.2h-32c-1.4,0-2.5-1.1-2.5-2.5c0-1.4,1.1-2.5,2.5-2.5h32c1.4,0,2.5,1.1,2.5,2.5
				C188.5,36.1,187.3,37.2,186,37.2z"/>
		</g>
		<g>
			<path class="st20" d="M186,51.1h-32c-1.4,0-2.5-1.1-2.5-2.5c0-1.4,1.1-2.5,2.5-2.5h32c1.4,0,2.5,1.1,2.5,2.5
				C188.5,50,187.3,51.1,186,51.1z"/>
		</g>
		<g>
			<path class="st20" d="M186,65h-57.9c-1.4,0-2.5-1.1-2.5-2.5c0-1.4,1.1-2.5,2.5-2.5H186c1.4,0,2.5,1.1,2.5,2.5
				C188.5,63.9,187.3,65,186,65z"/>
		</g>
		<g>
			<path class="st20" d="M186,78.9h-57.9c-1.4,0-2.5-1.1-2.5-2.5c0-1.4,1.1-2.5,2.5-2.5H186c1.4,0,2.5,1.1,2.5,2.5
				C188.5,77.8,187.3,78.9,186,78.9z"/>
		</g>
		<g>
			<path class="st20" d="M186,92.8h-57.9c-1.4,0-2.5-1.1-2.5-2.5c0-1.4,1.1-2.5,2.5-2.5H186c1.4,0,2.5,1.1,2.5,2.5
				C188.5,91.7,187.3,92.8,186,92.8z"/>
		</g>
		<g>
			<path class="st20" d="M186,106.7h-57.9c-1.4,0-2.5-1.1-2.5-2.5c0-1.4,1.1-2.5,2.5-2.5H186c1.4,0,2.5,1.1,2.5,2.5
				C188.5,105.6,187.3,106.7,186,106.7z"/>
		</g>
		<g>
			<path class="st20" d="M186,120.6h-57.9c-1.4,0-2.5-1.1-2.5-2.5c0-1.4,1.1-2.5,2.5-2.5H186c1.4,0,2.5,1.1,2.5,2.5
				C188.5,119.5,187.3,120.6,186,120.6z"/>
		</g>
	</g>
	<polygon class="st6" points="84.6,129.2 70.9,122.7 69.7,128.2 81.4,136.2 	"/>
	<polygon class="st21" points="84.6,129.2 70.9,122.7 69.7,128.2 81.4,136.2 	"/>
	<rect x="50" y="137.7" transform="matrix(0.9436 0.3311 -0.3311 0.9436 50.2292 -9.4526)" class="st3" width="5.6" height="10"/>
	<path class="st22" d="M78.6,136.7l-13.4-22.1c-1-1.6-2.7-2.5-4.5-2.5l0,0c-2.4,0-4.4,1.6-5.1,3.9l-8.1,29l9.7,0.4
		c0,0,4.9-10.8,4.9-14.4l3.9,16.6l16.9-2.2L78.6,136.7z"/>
	<rect x="8.1" y="154.9" class="st3" width="9.9" height="5.2"/>
	<rect x="8.1" y="159.2" class="st21" width="9.9" height="1"/>
	<g class="st23">
		<polygon class="st24" points="76.3,140.8 72,142.1 66.2,142.5 64.7,142.5 65.9,147.6 82.8,145.4 79.9,139.2 79.7,139.1 		"/>
		<path class="st24" d="M58.4,142.6l-9.4,0.1c-0.3,0-0.5,0-0.8,0l-0.6,2.3l9.7,0.4C57.2,145.4,57.7,144.2,58.4,142.6z"/>
	</g>
	<path class="st22" d="M72.8,144.4l-4.3,1.3l-5.8,0.4l-17.2,0.2c-0.8,0-1.5,0.1-2.3,0.2l-28.5,7.2v7.3l23.3-0.1l5.6-0.7l4-1l2.8,0.3
		l23.2,1.1h8.8c4.6,0,8.3-3.7,8.3-8.3l0,0l-14.5-9.5L72.8,144.4z"/>
	<path class="st25" d="M82.3,158.8h-8.8l-23.2-1.1l-2.8-0.3l-4,1l-5.6,0.7l-23.3,0.1v1.8l23.3-0.1l5.6-0.7l4-1l2.8,0.3l23.2,1.1h8.8
		c4.6,0,8.3-3.7,8.3-8.3l-0.2-0.1C89.7,155.9,86.3,158.8,82.3,158.8z"/>
	<polygon class="st3" points="96.9,106.6 88.4,109.2 85.6,100.1 94.1,97.5 95.1,101.5 	"/>
	<path class="st21" d="M88.1,108.4c2.6-1.6,4.2-4.5,4.1-7.7l-0.1-2.6l-6.5,2L88.1,108.4z"/>
	<path class="st3" d="M77.6,92.8l0.2,5.8l1,0.7l-0.2,3.9c0,0.5,0.4,0.8,0.9,0.7l1.6-0.5l0.8,2.6c0.8,1.2,2.4,2.2,4,2.1l0.2-0.1
		c3.8-1.1,6.3-4.7,6.1-8.6L92,94.8L90.2,89L77.6,92.8z"/>
	<g class="st26">
		<path class="st27" d="M90,98c0.3,0.4,1.8,1.6,2.4,1.7c1.1,0.2,2.3,0,2.3-0.2c-0.1-0.4-0.8-0.9-0.8-1.3c0-0.2,0-0.4,0-0.5l-1.8,0.5
			L92,94.8L90.2,89l-12.6,3.8l0.1,2.9c0.1,0,0.2-0.1,0.3-0.1c0.8-0.3,1.7-0.5,2.5-0.7c0.7-0.1,1.6-0.6,1.7,0.3
			c0.1,1.1,2.2,4.5,2.2,4.5s0.6-0.2,1.2-0.4c-0.5-0.7-0.7-0.6-0.9-1.4c-0.2-0.7-0.3-1.5,0.1-2.1c0.3-0.5,0.9-0.7,1.5-0.8
			c0.8-0.2,1.6-0.2,2.2,0.3C89.5,95.9,89.2,97,90,98z"/>
	</g>
	<g>
		<path class="st8" d="M94.5,98.8c0-0.2-0.1-0.4-0.2-0.7c-0.1-0.4,0.1-0.8,0.1-1.2c0.1-0.6,0-1.2-0.2-1.8c-0.2-0.6-0.7-1.3-0.5-1.9
			c0.1-0.2,0.2-0.4,0.2-0.6c0.2-0.6,0.1-1.3-0.3-1.8c-0.5-0.7-1-0.8-0.9-1.8c0.1-0.8,0.2-1.5-0.2-2.3c-0.4-0.9-1.5-1.6-2.5-1.4
			c-0.2-0.6-0.8-1.1-1.5-1.3c-0.6-0.2-1.3-0.1-2,0c-0.8,0.2-1.5,0.6-1.9,1.3c-0.1,0.1-0.2,0.3-0.3,0.2c0,0-0.1-0.1-0.1-0.1
			c-0.5-0.7-1.3-1.1-2.1-1.1c-0.8,0-1.6,0.3-2.2,0.9c-0.6,0.7-0.8,1.5-1,2.4c-0.3-0.4-1-0.4-1.5-0.2c-0.5,0.2-0.8,0.7-1.1,1.1
			c-0.6,0.9-1.1,1.6-1.2,2.8c-0.1,1.1,0.5,3.3,1.9,3.3c0.5,0,0.9-0.2,1.3-0.3c0.8-0.3,1.7-0.5,2.5-0.7c0.7-0.1,1.6-0.6,1.7,0.3
			c0.1,1.1,0.7,2.1,1.1,3.1c0.3,0.7,0.5,1.5,0.7,2.2c0.6-0.1,1-0.3,1.6-0.5c-0.5-0.7-0.7-1.5-1-2.3c-0.2-0.7-0.3-1.5,0.1-2.1
			c0.3-0.5,0.9-0.7,1.5-0.8c0.8-0.2,1.6-0.2,2.2,0.3c1,0.8,0.8,2.4,1.6,3.5c0.3,0.4,0.8,0.7,1.3,1c0.5,0.3,1.3,0.3,1.9,0.6
			c0.2,0.1,0.6,0.6,0.8,0.5C94.8,99.3,94.6,99,94.5,98.8z"/>
	</g>
	<g>
		<g>
			<path class="st12" d="M76,93.2c0.1-1.1,0.6-1.9,1.2-2.8c0.3-0.4,0.6-0.9,1.1-1.1c0.5-0.2,1.1-0.2,1.5,0.2c0.2-0.8,0.4-1.7,1-2.4
				c0.5-0.6,1.3-1,2.2-0.9c0.8,0,1.6,0.4,2.1,1.1c0,0,0.1,0.1,0.1,0.1c0.1,0.1,0.2-0.1,0.3-0.2c0.4-0.7,1.1-1.1,1.9-1.3
				c0.7-0.2,1.3-0.2,2,0c0.6,0.2,1.2,0.6,1.5,1.3c0.8-0.2,1.7,0.3,2.2,0.9c0-0.4-0.1-0.9-0.3-1.3c-0.4-0.9-1.5-1.6-2.5-1.4
				c-0.2-0.6-0.8-1.1-1.5-1.3c-0.6-0.2-1.3-0.1-2,0c-0.8,0.2-1.5,0.6-1.9,1.3c-0.1,0.1-0.2,0.3-0.3,0.2c0,0-0.1-0.1-0.1-0.1
				c-0.5-0.7-1.3-1.1-2.1-1.1c-0.8,0-1.6,0.3-2.2,0.9c-0.6,0.7-0.8,1.5-1,2.4c-0.3-0.4-1-0.4-1.5-0.2c-0.5,0.2-0.8,0.7-1.1,1.1
				c-0.6,0.9-1.1,1.6-1.2,2.8c0,0.6,0.2,1.7,0.6,2.4C76,93.6,76,93.4,76,93.2z"/>
		</g>
	</g>
	<path class="st6" d="M95.9,103.6l5.5,6.8c2,2.5,3.1,5.6,3.1,8.7l0.1,5l-0.5,18.5l0,7.3c-0.6,6.3-14,4.6-14,4.6s-16.4-2.4-17.9-7
		l4.5-6.7c3.2-4.7,4.9-10.2,4.9-15.9l0,0c0-5.7,1.9-11.2,5.3-15.7v0L95.9,103.6z"/>
	<path class="st21" d="M104.6,124.2l-0.1-5c0-3.2-1.1-6.3-3.1-8.7l-5.5-6.8l-0.8,0.5l5.1,6.3c2,2.5,3.1,5.6,3.1,8.7l0.1,5l-0.5,18.5
		l0,7.3c-0.4,3.9-5.5,4.7-9.4,4.8c4,0.1,10.2-0.5,10.6-4.8l0-7.3L104.6,124.2z"/>
	<polygon class="st6" points="88.4,111.6 92.9,132.7 89,156.7 95.3,156.7 100.9,138.7 101.6,133.8 98.5,110.7 	"/>
	<path class="st21" d="M98.9,113.3l-0.3,1.8c-0.5,2.8-0.5,5.7-0.1,8.6l1.4,10.2l-0.7,4.9l-5.6,17.9h1.8l5.6-17.9l0.7-4.9L98.9,113.3
		z"/>
	<path class="st3" d="M89.7,156.7l-1.2,1.1h-4.3c-0.8,0-5.2,0.3-5.2,0.3c-1.2,0.4-1.9,1.2-1.9,2.5l0,0l5.6,0l8.6,0.1
		c1.3,0,2.1-0.6,2.9-1.6l0.1-0.3c0.2-0.3,0.3-0.5,0.3-0.8l0.2-1.2H89.7z"/>
	<path class="st21" d="M93.9,156.7L93.9,156.7c0,0.4-0.1,0.6-0.3,0.9l-0.1,0.3c-0.7,1-1.6,1.6-2.9,1.6l-8.6-0.1l-4.7,0
		c-0.2,0.3-0.3,0.7-0.3,1.2l5.6,0l8.6,0.1c1.3,0,2.1-0.6,2.9-1.6l0.1-0.3c0.2-0.3,0.3-0.5,0.3-0.8l0.2-1.2H93.9z"/>
	<path class="st6" d="M9.3,160.7v-6l-2.8-2.5V147c0-3.2-1.8-6.2-4.7-7.7l0,0v21.4H9.3z"/>
	<g>
		<path class="st28" d="M6.5,149.4V147c0-3.2-1.8-6.2-4.7-7.7v2.4C4.7,143.2,6.5,146.2,6.5,149.4z"/>
	</g>
	<circle class="st3" cx="5.6" cy="156.9" r="1.9"/>
	
		<rect x="-10.4" y="148.8" transform="matrix(-1.836970e-16 1 -1 -1.836970e-16 150.614 148.8361)" class="st8" width="22.5" height="1.8"/>
	<path class="st4" d="M75.6,130.2L75.6,130.2c-0.4,0.2-0.9,0.1-1.1-0.3l-9.2-15c-0.2-0.4-0.1-0.9,0.3-1.1l0,0
		c0.4-0.2,0.9-0.1,1.1,0.3l9.2,15C76.1,129.5,75.9,130,75.6,130.2z"/>
	<g class="st29">
		<path class="st24" d="M56.8,117.1c0.6-2.3,2.7-3.9,5.1-3.9l0,0c1.1,0,2.2,0.4,3.1,1c-1-1.4-2.6-2.2-4.3-2.2l0,0
			c-2.4,0-4.4,1.6-5.1,3.9l-8.1,29L49,145L56.8,117.1z"/>
	</g>
	<path class="st30" d="M243.1,54.5h0.3l-0.3-8.3c-0.1-1.2-2-3.9-4.2-4.1l-1.7-0.3c0,0,0.1-0.1,0.1-0.2c0.1-0.4,0-1.2-0.2-1.7
		c-0.2-0.4-0.1-0.6-0.1-1.1c0-0.2,0-0.4,0.1-0.6c0.1-0.4,0.3-0.7,0.4-1.1c0.1-0.2,0.1-0.4,0.1-0.6c0-0.6,0-1.2-0.2-1.8
		c-0.2-0.6-0.3-1.2-0.3-1.8c0-0.9-0.4-1.8-0.3-2.8c0-0.2,0-0.4,0-0.7c0-0.5,0-1,0-1.5c0-0.2,0-0.5-0.1-0.7c-0.5-2.4-1-5.2-2.5-7
		c-0.2-0.3-0.5-0.5-0.7-0.7c-0.5-0.5-1.2-1.1-1.8-1.4c-1.9-1-4-1.6-6.1-1c-1.1,0.3-2.1,0.9-2.4,1.8c0,0,0,0,0,0l-0.2,0.8
		c0,0,0-0.1-0.1-0.1l0,0c0,0,0,0,0,0c0-0.1-0.1-0.1-0.1-0.2c-0.1-0.1-0.1-0.1-0.2-0.2c0,0-0.1-0.1-0.1-0.1c-0.1-0.1-0.1-0.1-0.2-0.1
		c0,0,0,0-0.1-0.1c-0.1,0-0.2-0.1-0.3,0c-0.7,0.1-1.6,1.1-2.3,2.2c-0.2,0.4-0.4,0.7-0.5,1c-0.4,1.2-0.7,2.5-0.7,3.8
		c0,0.4,0,0.9,0.1,1.3c0.1,0.5,0.2,1,0.2,1.5c0.1,0.5,0.2,1,0.2,1.4c0.1,0.5,0.1,1,0.1,1.5c0,0.5-0.1,1-0.2,1.5
		c-0.1,0.3-0.2,0.7-0.3,1c-0.2,0.7-0.5,1.5-0.7,2.2c-0.1,0.5-0.2,0.9-0.3,1.3c-0.1,0.7-0.3,1.3-0.6,2.3c0,0.1-0.1,0.3-0.2,0.4
		c0,0.1,0,0.1,0,0.2c0,0.1,0,0.1,0.1,0.1c0.1,0,0.3,0.1,0.4,0.2c0,0,0.1,0,0.1,0c0.2,0,0.4,0,0.6,0c0,0,0,0,0,0v0c0.1,0,0.3,0,0.4,0
		l-5.7,1.1c-1.1,0.2-2,0.9-2.6,1.8c-0.2,0.2-0.3,0.5-0.4,0.8c-0.2,0.4-0.3,0.9-0.3,1.4l-0.3,8.3h0.4v1.3c-0.2,0.1-0.3,0.2-0.4,0.3
		c-0.1,0.1-0.1,0.4,0,0.5c0.1,0.1,0.3,0.1,0.4,0.1v1.1c-0.5,0.5-0.9,1-1.1,1.3c-0.1,0.1-0.2,0.4-0.1,0.5c0.3,0.1,0.7-0.2,1.1-0.5
		v0.2c-0.5,0.3-0.9,0.6-1.1,0.7c-0.2,0.1,0.4,0.5,0.6,0.5c0.1,0,0.3,0,0.4-0.1v0.3c-0.3,0.1-0.6,0.2-0.7,0.3c-0.1,0-0.1,0.2,0,0.3
		c0,0,0,0.1,0,0.1c0,0.1,0.1,0.2,0.1,0.2c0,0.1,0.1,0.1,0.1,0.1c0.1,0,0.3-0.1,0.4-0.1v2c0,0.2,0,0.5,0.1,0.7
		c0.3,1.5,1.6,2.7,3.1,2.8l2.4,0.2l0,0.3l-3.4,17.2c0.6,0.7,1.4,1.1,2.4,1.4v1.2v0.1v2.7c0,0.7,0.1,1.5,0.2,2.2l5.8,29.1l-0.8,31.7
		h0.6v1.2h-0.4c-1.6,0-2.9,1.3-2.9,2.9v0.5v1.2v0.1h-0.5v1.9h10.2v-1.9h-0.9V159v-1.2v-0.5c0-0.4-0.1-0.8-0.3-1.2v-2.9h0.9l1-8.8
		l0.2,8.8l0.9,0v2.2c-0.4,0.5-0.7,1.1-0.7,1.8v0.5v1.2v0.1h-0.5v1.9h10.2v-1.9h-0.9V159v-1.2v-0.5c0-1.6-1.3-2.8-2.8-2.9v-1.2l1.4,0
		l0.2-13.1l1.3-18.6l2.3-21.3l1.4-7.5v-3.3v-3c0.4,0.1,0.7,0.3,1.1,0.5l-3.8-16c-0.1-0.5-0.2-1.1-0.2-1.6c0.5,0,1,0,1.6,0l0.7-0.2
		c0.9,0,2.2-0.3,3.2-0.8c0.1-0.1,0.2-0.1,0.3-0.2c0.2-0.1,0.4-0.3,0.5-0.4c0.3-0.3,0.4-0.7,0.4-1.1L243.1,54.5z M236.2,41.5
		L236.2,41.5c0,0,0.1,0,0.1,0.1L236.2,41.5C236.1,41.5,236.2,41.5,236.2,41.5z M231.2,35.9L231.2,35.9
		C231.2,35.9,231.2,35.9,231.2,35.9C231.2,35.9,231.2,35.9,231.2,35.9L231.2,35.9z M242.2,54.5L242.2,54.5l-0.3-7.7L242.2,54.5z
		 M219.5,41C219.5,41,219.5,41,219.5,41L219.5,41C219.4,41,219.5,41,219.5,41z"/>
	<rect x="222" y="152" class="st3" width="5.3" height="4.2"/>
	<rect x="218.3" y="159.1" class="st8" width="10.2" height="1.9"/>
	<path class="st31" d="M224.8,154.4h-3.1c-1.6,0-2.9,1.3-2.9,2.9v1.8h8.8v-1.8C227.6,155.7,226.4,154.4,224.8,154.4z"/>
	<path class="st32" d="M224.2,154.4h-2.1c-1.9,0-3.4,1.5-3.4,3.4v1.2c0-1.9,1.5-3.4,3.4-3.4h2.1c1.9,0,3.4,1.5,3.4,3.4v-1.2
		C227.6,156,226.1,154.4,224.2,154.4z"/>
	<rect x="230.4" y="152" class="st3" width="5.3" height="4.2"/>
	<rect x="229.2" y="159.1" class="st8" width="10.2" height="1.9"/>
	<path class="st31" d="M235.7,154.4h-3.1c-1.6,0-2.9,1.3-2.9,2.9v1.8h8.8v-1.8C238.5,155.7,237.2,154.4,235.7,154.4z"/>
	<path class="st32" d="M235.1,154.4h-2.1c-1.9,0-3.4,1.5-3.4,3.4v1.2c0-1.9,1.5-3.4,3.4-3.4h2.1c1.9,0,3.4,1.5,3.4,3.4v-1.2
		C238.5,156,237,154.4,235.1,154.4z"/>
	<polygon class="st22" points="242.3,86.3 242.3,92.6 240.9,100.2 238.6,121.5 237.3,140.1 237.1,153.2 229.5,153.2 228.6,118.6 
		228.6,85.5 242.3,84.8 	"/>
	<path class="st25" d="M233.7,120.8c0-0.3,0-0.5,0-0.8l-3.7-27.8l-1.5-6.7v33.1l0.9,34.6h0.6L233.7,120.8z"/>
	<path class="st22" d="M216.2,85.5v4.8c0,0.7,0.1,1.5,0.2,2.2l5.8,29.1l-0.8,31.7h6.8l3.7-32.4c0-0.3,0-0.5,0-0.8l-2.7-22.6l0.2-3.6
		l0.6-1.9c1.3-2.3,2-4.9,2-7.6l0,0L216.2,84V85.5z"/>
	<path class="st25" d="M218.2,92.4c-0.1-0.7-0.2-1.4-0.2-2.2v-2.4l-1.8-0.3v2.7c0,0.7,0.1,1.5,0.2,2.2l5.8,29.1l-0.8,31.7h1.8
		l0.8-31.7L218.2,92.4z"/>
	<path class="st33" d="M225.5,40.2l-10.6,2.1c-1.9,0.4-3.3,2-3.3,3.9l-0.3,8.3h6.2l0.9-7.2l9.3-3.9L225.5,40.2z"/>
	<path class="st34" d="M212.8,47.4c0.1-1.9,1.5-3.5,3.3-3.9l10.2-2l-0.8-1.3l-10.6,2.1c-1.9,0.4-3.3,2-3.3,3.9l-0.3,8.3h1.2
		L212.8,47.4z"/>
	<path class="st33" d="M230,40.8l9.7,1.9c2.2,0.2,4.2,2.9,4.2,4.1l0.3,8.3H238l-0.9-7.2l-9.3-3.9L230,40.8z"/>
	<path class="st34" d="M239.7,42.7c2.2,0.2,4.2,2.9,4.2,4.1l0.3,7.7h1.2l-0.3-8.3c-0.1-1.2-2-3.9-4.2-4.1l-9.7-1.9l-0.5,0.7
		L239.7,42.7z"/>
	<path class="st35" d="M242.3,89.3v-3v-1l-0.1-0.4l-10.3,0.5c0-0.3,0.1-0.7,0.1-1L216.2,84v1.6v1.9
		C222.4,89.4,235.2,86.6,242.3,89.3z"/>
	<path class="st33" d="M217.3,67.6l-3.4,17.2c4.6,5.2,21.7-2.3,29.5,2l-3.8-16c-0.2-1-0.3-2-0.3-3l0.9-24.9l-23,1.2L217.3,67.6z"/>
	<path class="st36" d="M239.8,68l0.5-12.8h4.5l-0.3-8.3c-0.1-1.2-2-3.9-4.2-4.1l-9.7-1.9l-1.8,2.8l-0.9,0l0.3-0.1l-2.1-3.3
		l-10.6,2.1c-1.9,0.4-3.3,2-3.3,3.9l-0.3,8.3h5.9l0.1,13.1L214.4,85c4.6,5.2,21.7-2.3,29.5,2l-3.8-16C239.9,70,239.8,69,239.8,68z"
		/>
	<path class="st3" d="M229.4,44.9L229.4,44.9c-2.1,0-3.9-1.7-3.9-3.9v-6.7h7.7V41C233.2,43.1,231.5,44.9,229.4,44.9z"/>
	<path class="st21" d="M225.5,36.4c1,0.9,2.2,1.4,3.6,1.4c1.7,0,3.1-0.8,4.1-2v-1.5h-7.7V36.4z"/>
	<path class="st3" d="M229.7,37.2L229.7,37.2c-3,0-5.4-2.4-5.4-5.4V21.3h10.7v10.6C235.1,34.8,232.7,37.2,229.7,37.2z"/>
	<g class="st26">
		<path class="st27" d="M224.5,21.4c0.9,1.5,1.7,3,3.5,3.5c1.6,0.4,3.6-0.5,4.7,1.1c0.6,0.9,1.1,2,1.1,3.1c0,0.5-0.1,1.1-0.4,1.5
			c-0.3,0.5-0.4,0.9-0.5,1.5c-0.1,0.5-0.3,0.9-0.3,1.4c0,1.7-0.5,3.4-1.5,4.9c-0.1,0.1-0.1,0.2-0.2,0.3c0,0.2,0,0.4,0.1,0.6
			c0.6,1.7,0.3,3.8-0.9,5.3c-0.1,0.1-0.1,0.2-0.2,0.3c1.8-0.3,3.2-1.9,3.2-3.8v-5.1c1.1-1,1.9-2.4,1.9-4V21.3L224.5,21.4
			C224.5,21.3,224.5,21.3,224.5,21.4z"/>
	</g>
	<g>
		<path class="st8" d="M238.9,27.5c-0.6-2.8-1.2-5.9-3.2-7.7c-0.5-0.5-1.2-1.1-1.8-1.4c-1.9-1-4-1.6-6.1-1c-1.6,0.4-3.2,1.6-2,3.5
			c0.9,1.5,1.7,3,3.5,3.5c1.6,0.4,3.6-0.5,4.7,1.1c0.6,0.9,1.1,2,1.1,3.1c0,0.5-0.1,1.1-0.4,1.5c-0.3,0.5-0.4,0.9-0.5,1.5
			c-0.1,0.5-0.3,0.9-0.3,1.4c0,1.7-0.5,3.4-1.5,4.9c-0.1,0.1-0.1,0.2-0.2,0.3c0,0.2,0,0.4,0.1,0.6c0.6,1.7,0.3,3.8-0.9,5.3
			c-0.4,0.4-0.8,0.9-1,1.4c0.9,0,1.8-0.2,2.5-0.8c-0.2,0.3,0,1,0.3,1.3c0.7,0.8,1.8,1,2.3-0.1c0.2-0.5,0.3-1,0.7-1.4
			c0.1-0.2,0.4-0.3,0.6-0.2c0,0,0,0,0,0c0.1,0.1,0.4,0.3,0.4,0.4c0.1,0.5,0.3,0.5,0.7,0.2c0.3-0.3,0.2-1.5,0.2-2
			c0-0.3-0.1-0.6-0.1-0.9c0.1-0.5,0.4-0.2,0.8,0c0.9,0.4,0.7-1,0.4-1.8c-0.2-0.4-0.1-0.6-0.1-1.1c0-0.8,0.5-1.4,0.5-2.2
			c0-0.6,0-1.2-0.2-1.8c-0.2-0.6-0.3-1.2-0.3-1.8c0-0.9-0.4-1.8-0.3-2.8C239,29.5,239,28.3,238.9,27.5z"/>
	</g>
	<g>
		<g>
			<path class="st12" d="M231.8,45.1C231.7,45.2,231.7,45.2,231.8,45.1C231.7,45.2,231.7,45.2,231.8,45.1
				C231.8,45.2,231.8,45.2,231.8,45.1z"/>
		</g>
		<g>
			<path class="st12" d="M239.1,38.9c0-0.8,0.5-1.4,0.5-2.2c0-0.6,0-1.2-0.2-1.8c-0.2-0.6-0.3-1.2-0.3-1.8c0-0.9-0.4-1.8-0.3-2.8
				c0.1-0.8,0.1-2,0-2.8c-0.6-2.8-1.2-5.9-3.2-7.7c-0.5-0.5-1.2-1.1-1.8-1.4c-1.9-1-4-1.6-6.1-1c-0.6,0.1-1.1,0.4-1.5,0.7
				c0.1,0,0.2-0.1,0.4-0.1c2.1-0.5,4.2,0.1,6.1,1c0.6,0.3,1.3,1,1.8,1.4c2.1,1.8,2.7,4.9,3.2,7.7c0.2,0.8,0.1,2,0,2.8
				c-0.1,0.9,0.3,1.8,0.3,2.8c0,0.6,0.1,1.2,0.3,1.8c0.2,0.6,0.2,1.2,0.2,1.8c0,0.8-0.5,1.4-0.5,2.2c0,0.5-0.1,0.6,0.1,1.1
				c0.1,0.3,0.2,0.7,0.2,1c0.1,0,0.3,0.1,0.5,0.3c0.9,0.4,0.7-1,0.4-1.8C239,39.5,239.1,39.3,239.1,38.9z"/>
		</g>
	</g>
	<g>
		<path class="st8" d="M225.5,41.7c0.4,0.3,1,0.5,1.5,0.6c-0.2-2.1-1.1-3.9-1.2-6c-0.1-1.5-0.3-2.9-0.6-4.4
			c-0.2-1.1-0.9-2.3-0.8-3.4c0.1-1.5,0.7-2.9,0.8-4.4c0-1,1.1-1.8,1.1-2.9c0-0.9-0.1-1.7-0.9-2.1l-0.2,0.8c-0.3-0.3-0.6-0.8-1-0.8
			c-0.9,0.1-2.3,1.9-2.7,3.2c-0.5,1.5-0.9,3.4-0.7,5.1c0.3,2,0.9,3.8,0.4,5.9c-0.3,1.1-0.7,2.1-1,3.2c-0.3,1.4-0.4,2-0.9,3.7
			c-0.1,0.2-0.4,0.7-0.1,0.8c0.1,0,0.4,0.2,0.5,0.2c0.6,0,1.3,0,1.9-0.2c0.2,0.4,0.4,0.8,0.7,1.2c0.1,0.2,0.8,1.1,0.8,1.3
			c0.1-0.6,0.4-1.3,0.8-1.8c0.4,0.7,1.1,1.3,1.9,1.7C225.4,42.8,225.4,42.2,225.5,41.7z"/>
	</g>
	<g>
		<g>
			<path class="st12" d="M220.4,40.8c0.5-1.6,0.6-2.3,0.9-3.7c0.2-1.1,0.7-2.1,1-3.2c0.5-2.1-0.1-3.9-0.4-5.9
				c-0.2-1.6,0.2-3.5,0.7-5.1c0.4-1.2,1.6-2.7,2.5-3.1c-0.2-0.3-0.5-0.8-0.9-0.7c-0.9,0.1-2.3,1.9-2.7,3.2c-0.5,1.5-0.9,3.4-0.7,5.1
				c0.3,2,0.9,3.8,0.4,5.9c-0.3,1.1-0.7,2.1-1,3.2c-0.3,1.4-0.4,2-0.9,3.7c-0.1,0.2-0.4,0.7-0.1,0.8c0.1,0,0.4,0.2,0.5,0.2
				c0.2,0,0.4,0,0.6,0C220.3,41,220.4,40.9,220.4,40.8z"/>
		</g>
	</g>
	<path class="st3" d="M211.7,54.5v9.2c0,1.8,1.4,3.3,3.2,3.5l15.3,1.2c0.9,0.1,2.4-0.2,3.2-0.3c1.7-0.4,3.4-0.8,4.6-2.1l2.8-2.9
		l0.7-1.7l1-0.8c0,0,2.1-0.2,2.9-0.4c0.1,0,0-0.4-0.1-0.5c-0.5-0.5-2.6-0.2-2.6-0.2l-2,0.9v-0.6l1.1-1c0,0,1.9-0.4,2.7-0.6
		c0.2,0,0.9-0.3,0.7-0.5c-0.5-0.9-4.2,0-4.2,0l-1.9,1.9v-0.5l2.6-2.2c0,0,1.9-0.2,2-0.9c0.1-0.2,0-0.5-0.2-0.5
		c-1.2-0.2-4.4,1.9-4.4,1.9l-2,3.2l-1.1,1.6c-1.2,1.7-3.2,2.7-5.3,2.4l-12.6-1.7l-0.7-8.4H211.7z"/>
	<g class="st26">
		<path class="st27" d="M234.6,66.8c-0.9,0.2-2.3,0.4-3.2,0.3L216.1,66c-1.8-0.2-3.2-1.7-3.2-3.5v-8h-1.2v9.2c0,1.8,1.4,3.3,3.2,3.5
			l15.3,1.2c0.9,0.1,2.4-0.2,3.2-0.3c1.7-0.4,3.4-0.8,4.6-2.1L239,65C237.7,66.1,236.2,66.5,234.6,66.8z"/>
	</g>
	<path class="st37" d="M245.1,54.5l0.9,12.1c0.1,1.6-2.8,2.5-4.4,2.5l-0.7,0.2c-5.4,0-8.3-1.4-13.1-3.4l-4.6-2.3l-4.9-1.7l-2.7-0.6
		c0,0-3.3,0.2-4.4,0.5c-0.2,0-0.4-0.6-0.3-0.7c0.4-0.4,2.5-0.8,2.5-0.8l1.7-0.2v-0.4l-2.4,0.1c0,0-1.2,0.8-1.6,0.8
		c-0.2,0-0.8-0.4-0.6-0.5c0.4-0.3,2.6-1.7,2.6-1.7l2.2,0l0-0.3l-2.7-0.1c0,0-1.6,2-2.2,1.7c-0.1-0.1,0-0.4,0.1-0.5
		c0.3-0.7,2-2.2,2-2.2l3,0.1l0-0.4l-1.7-0.4l-2,0.5c0,0-0.6,0-0.7-0.1c-0.1-0.1-0.1-0.4,0-0.5c0.7-0.6,3.5-1.1,3.5-1.1l3.3,1.9
		l4.1,2.8l17.3,2.9l-0.4-8H245.1z"/>
	<g class="st26">
		<path class="st27" d="M245.1,54.5H244l0.8,10.9c0.1,1.6-2.8,2.5-4.4,2.5l-0.7,0.2c-5.4,0-8.3-1.4-13.1-3.4l-4.6-2.3l-4.9-1.7
			l-2.5-0.5l-1.1,0.1c0,0-2.1,0.5-2.5,0.8c-0.1,0.1,0.1,0.7,0.3,0.7c1.1-0.3,4.4-0.5,4.4-0.5l2.7,0.6l4.9,1.7l4.6,2.3
			c4.9,1.9,7.8,3.4,13.1,3.4l0.7-0.2c1.6,0,4.5-0.8,4.4-2.5L245.1,54.5z"/>
	</g>
	<path class="st37" d="M241,62.7l0.6-1.3l1-0.8c0,0,2.1-0.2,2.9-0.4c0.1,0,0-0.4-0.1-0.5c-0.5-0.5-2.6-0.2-2.6-0.2l-2,0.9v-0.6
		l1.1-1c0,0,1.9-0.4,2.7-0.6c0.2,0,0.9-0.3,0.7-0.5c-0.5-0.9-4.2,0-4.2,0l-1.9,1.9v-0.5l2.6-2.2c0,0,1.9-0.2,2-0.9
		c0.1-0.2,0-0.5-0.2-0.5c-1.2-0.2-4.4,1.9-4.4,1.9l-2,3.2l-0.9,1.4L241,62.7z"/>
</g>
</svg>
