<?xml version="1.0" encoding="utf-8"?>
<!-- Generator: Adobe Illustrator 21.1.0, SVG Export Plug-In . SVG Version: 6.00 Build 0)  -->
<svg version="1.1" id="Layer_1" xmlns="http://www.w3.org/2000/svg" xmlns:xlink="http://www.w3.org/1999/xlink" x="0px" y="0px"
	 viewBox="0 0 94.2 93.5" style="enable-background:new 0 0 94.2 93.5;" xml:space="preserve">
<style type="text/css">
	.st0{fill:#FBC02B;}
</style>
<path class="st0" d="M84.2,2.1H23.9c-4.4,0-8,3.6-8,8v60.4c0,1.4-1.1,2.5-2.5,2.5s-2.5-1.1-2.5-2.5v-45c-0.6,0-1.2,0-1.8,0
	c-3.8,0-6.8,3.6-6.8,8v23v26.3c0,4.4,3.6,8,8,8h74c4.4,0,8-3.6,8-8V10.1C92.2,5.7,88.7,2.1,84.2,2.1z M28.4,15.2
	c0-1.1,0.9-2.1,2.1-2.1H45c1.1,0,2.1,0.9,2.1,2.1v14.5c0,1.1-0.9,2.1-2.1,2.1H30.5c-1.1,0-2.1-0.9-2.1-2.1V15.2z M79.2,73.1H29v-5
	h50.2V73.1z M79.2,59.5H29v-5h50.2V59.5z M79.2,45.9H29v-5h50.2V45.9z M79.2,32.3H59.3v-5h19.9V32.3z M79.2,18.7H59.3v-5h19.9V18.7z
	"/>
</svg>
