<?xml version="1.0" encoding="utf-8"?>
<!-- Generator: Adobe Illustrator 21.1.0, SVG Export Plug-In . SVG Version: 6.00 Build 0)  -->
<svg version="1.1" id="Layer_1" xmlns="http://www.w3.org/2000/svg" xmlns:xlink="http://www.w3.org/1999/xlink" x="0px" y="0px"
	 viewBox="0 0 78.3 68.5" style="enable-background:new 0 0 78.3 68.5;" xml:space="preserve">
<style type="text/css">
	.st0{fill:#004EC5;}
</style>
<path class="st0" d="M74.6,63.1c-3.3-2.1-5-5.1-6-7.8c5.3-5.7,8.5-13,8.5-21C77.1,15.9,60,1,39,1S1,15.9,1,34.4s17,33.4,38,33.4
	c7.6,0,14.7-2,20.7-5.4c5.4,3.2,11.2,3.1,14.5,2.6C75.2,64.9,75.4,63.6,74.6,63.1z M40.6,46.8c0,0.8-0.7,1.5-1.5,1.5h-3.8
	c-0.8,0-1.5-0.7-1.5-1.5v-2.5c0-0.8,0.7-1.5,1.5-1.5h3.8c0.8,0,1.5,0.7,1.5,1.5V46.8z M46.7,32c-1,1.4-2.3,2.5-3.9,3.4
	c-0.9,0.6-1.5,1.2-1.8,1.8c-0.2,0.5-0.4,1-0.4,1.7c0,0.5-0.5,0.9-1.1,0.9h-4.7c-0.6,0-1.1-0.5-1.1-1.1c0.1-1.3,0.4-2.4,1-3.1
	c0.7-0.9,1.9-2,3.6-3.3c0.9-0.6,1.6-1.3,2.1-2.1s0.8-1.8,0.8-2.9c0-1.1-0.3-2-0.9-2.7c-0.6-0.7-1.5-1-2.6-1c-0.9,0-1.7,0.3-2.3,0.8
	c-0.4,0.3-0.6,0.8-0.8,1.4c-0.2,0.7-0.8,1.1-1.5,1.1l-4.4-0.1c-0.5,0-1-0.5-0.9-1c0.2-2.3,1.1-4.1,2.7-5.4c1.8-1.4,4.3-2.1,7.3-2.1
	c3.2,0,5.8,0.8,7.6,2.4c1.8,1.6,2.8,3.8,2.8,6.6C48.2,29,47.7,30.6,46.7,32z"/>
</svg>
