<?xml version="1.0" encoding="utf-8"?>
<!-- Generator: Adobe Illustrator 21.1.0, SVG Export Plug-In . SVG Version: 6.00 Build 0)  -->
<svg version="1.1" id="Layer_1" xmlns="http://www.w3.org/2000/svg" xmlns:xlink="http://www.w3.org/1999/xlink" x="0px" y="0px"
	 viewBox="0 0 47.7 43.8" style="enable-background:new 0 0 47.7 43.8;" xml:space="preserve">
<style type="text/css">
	.st0{fill:#38D1D0;}
</style>
<g>
	<path class="st0" d="M43.7,14.5l2.8-2.8c0.3-0.3,0.4-0.7,0.2-1.1c-0.2-0.4-0.5-0.6-0.9-0.6h-5v9h5c0.4,0,0.8-0.2,0.9-0.6
		c0.1-0.4,0.1-0.8-0.2-1.1L43.7,14.5z"/>
	<path class="st0" d="M0.9,10.7c-0.1,0.4-0.1,0.8,0.2,1.1l2.8,2.8l-2.8,2.8c-0.3,0.3-0.4,0.7-0.2,1.1C1.1,18.8,1.4,19,1.9,19h5v-9
		h-5C1.4,10,1.1,10.3,0.9,10.7z"/>
	<path class="st0" d="M38.1,5.6L24.1,1c-0.2-0.1-0.4-0.1-0.6,0l-14,4.6C9.1,5.8,8.9,6.2,8.9,6.6v21.7c0,8.3,6.7,15,15,15
		c8.3,0,15-6.7,15-15V6.6C38.8,6.2,38.5,5.8,38.1,5.6z M33.9,20.8l-5.3,3.8l2,6.1c0.1,0.4,0,0.9-0.3,1.1c-0.2,0.1-0.4,0.2-0.6,0.2
		c-0.2,0-0.4-0.1-0.6-0.2L23.8,28l-5.3,3.8c-0.3,0.2-0.8,0.2-1.2,0c-0.3-0.2-0.5-0.7-0.3-1.1l2-6.1l-5.3-3.8
		c-0.3-0.2-0.5-0.7-0.4-1.1c0.1-0.4,0.5-0.7,1-0.7h6.5l2-6.1c0.1-0.4,0.5-0.7,0.9-0.7c0.4,0,0.8,0.3,1,0.7l2,6.1h6.5
		c0.4,0,0.8,0.3,1,0.7C34.4,20.1,34.2,20.6,33.9,20.8z"/>
</g>
</svg>
