<?xml version="1.0" encoding="utf-8"?>
<!-- Generator: Adobe Illustrator 21.1.0, SVG Export Plug-In . SVG Version: 6.00 Build 0)  -->
<svg version="1.1" id="Layer_1" xmlns="http://www.w3.org/2000/svg" xmlns:xlink="http://www.w3.org/1999/xlink" x="0px" y="0px"
	 viewBox="0 0 91.8 91.2" style="enable-background:new 0 0 91.8 91.2;" xml:space="preserve">
<style type="text/css">
	.st0{fill:#0242A3;}
</style>
<g>
	<path class="st0" d="M37,78.4h17.6c1.6,0,2.9-1.3,2.9-2.9v-47c0-1.6-1.3-2.9-2.9-2.9H37c-1.6,0-2.9,1.3-2.9,2.9v47
		C34.1,77.1,35.4,78.4,37,78.4z"/>
	<path class="st0" d="M3.8,78.4L3.8,78.4l17.6,0c1.6,0,2.9-1.3,2.9-2.9V52c0-1.6-1.3-2.9-2.9-2.9H3.8c-1.6,0-2.9,1.3-2.9,2.9v23.5
		C0.8,77.1,2.1,78.4,3.8,78.4z"/>
	<path class="st0" d="M87.9,84.3H3.8c-1.6,0-2.9,1.3-2.9,2.9s1.3,2.9,2.9,2.9h84.1c1.6,0,2.9-1.3,2.9-2.9c0,0,0,0,0,0
		C90.8,85.6,89.5,84.3,87.9,84.3z"/>
	<path class="st0" d="M87.9,0.2H70.3c-1.6,0-2.9,1.3-2.9,2.9v72.4c0,1.6,1.3,2.9,2.9,2.9h17.6c1.6,0,2.9-1.3,2.9-2.9V3.1
		C90.8,1.5,89.5,0.2,87.9,0.2z"/>
</g>
</svg>
