<?xml version="1.0" encoding="utf-8"?>
<!-- Generator: Adobe Illustrator 24.2.1, SVG Export Plug-In . SVG Version: 6.00 Build 0)  -->
<svg version="1.1" id="Layer_1" xmlns="http://www.w3.org/2000/svg" xmlns:xlink="http://www.w3.org/1999/xlink" x="0px" y="0px"
	 viewBox="0 0 512.4 126.1" style="enable-background:new 0 0 512.4 126.1;" xml:space="preserve">
<style type="text/css">
	.st0{fill:#F1F1F2;}
	.st1{opacity:0.62;fill:#FFFFFF;}
	.st2{fill:#04277F;}
	.st3{opacity:0.66;fill:#063187;}
	.st4{fill:#EE4036;}
	.st5{fill:#2B388F;}
	.st6{fill:#283980;}
	.st7{fill:#FFFFFF;}
	.st8{fill:none;stroke:#00ADEE;stroke-miterlimit:10;}
	.st9{fill:#A91F26;}
	.st10{fill:#BE1E2D;}
	.st11{opacity:0.19;fill:#F1F1F2;}
	.st12{fill:#EAEAEA;}
	.st13{opacity:0.65;fill:#D0D2D3;}
	.st14{fill:url(#SVGID_1_);}
	.st15{opacity:6.000000e-02;fill:#04277F;}
	.st16{opacity:9.000000e-02;fill:#04277F;}
	.st17{opacity:8.000000e-02;fill:#04277F;}
	.st18{opacity:0.5;}
	.st19{fill:#393768;}
	.st20{fill:#5A5BAE;}
	.st21{fill-rule:evenodd;clip-rule:evenodd;fill:#FFFFFF;}
	.st22{fill:#8888BA;}
	.st23{fill:#F05A28;}
	.st24{fill:#FFD648;}
	.st25{fill:#97BBD3;}
	.st26{fill:#9B9AD3;}
	.st27{fill:#31374F;}
	.st28{fill:#CCE9F1;}
	.st29{fill:#DEE3FC;}
	.st30{fill:#EAECFD;}
	.st31{fill:#231F20;}
	.st32{fill:#F27677;}
	.st33{fill:#F2F2F2;}
	.st34{fill:#D12420;}
	.st35{fill:#04277F;stroke:#FFFFFF;stroke-miterlimit:10;}
	.st36{fill:#26A9E0;}
	.st37{fill:#E6E7E8;}
	.st38{fill:#F16222;stroke:#FFFFFF;stroke-miterlimit:10;}
	.st39{fill:#D64721;}
	.st40{fill:#041D4F;}
	.st41{fill:#BCD9FF;}
	.st42{fill:url(#SVGID_2_);}
	.st43{fill:url(#SVGID_3_);}
	.st44{fill:url(#SVGID_4_);}
	.st45{fill:url(#SVGID_5_);}
	.st46{fill:url(#SVGID_6_);}
	.st47{fill:#D4EEFF;}
	.st48{fill:url(#SVGID_7_);}
	.st49{fill:url(#SVGID_8_);}
	.st50{fill:url(#SVGID_9_);}
	.st51{fill:url(#SVGID_10_);}
	.st52{fill:#387BFE;}
	.st53{fill:url(#SVGID_11_);}
	.st54{fill:url(#SVGID_12_);}
	.st55{fill:url(#SVGID_13_);}
	.st56{fill:url(#SVGID_14_);}
	.st57{fill:url(#SVGID_15_);}
	.st58{fill:url(#SVGID_16_);}
	.st59{fill:url(#SVGID_17_);}
	.st60{fill:#FF4800;}
	.st61{fill-rule:evenodd;clip-rule:evenodd;fill:url(#SVGID_18_);}
	.st62{fill-rule:evenodd;clip-rule:evenodd;fill:#FFD2D3;}
	.st63{fill-rule:evenodd;clip-rule:evenodd;fill:#F4C3C6;}
	.st64{fill-rule:evenodd;clip-rule:evenodd;fill:url(#SVGID_19_);}
	.st65{fill-rule:evenodd;clip-rule:evenodd;fill:url(#SVGID_20_);}
	.st66{fill:#FFD2D3;}
	.st67{fill:#F4C3C6;}
	.st68{fill:url(#SVGID_21_);}
	.st69{fill:url(#SVGID_22_);}
	.st70{fill:url(#SVGID_23_);}
	.st71{fill:#051533;}
	.st72{fill:#D0AECF;}
	.st73{fill:url(#SVGID_24_);}
	.st74{fill:url(#SVGID_25_);}
	.st75{fill:url(#SVGID_26_);}
	.st76{fill:url(#SVGID_27_);}
	.st77{fill:url(#SVGID_28_);}
	.st78{fill:url(#SVGID_29_);}
	.st79{fill:url(#SVGID_30_);}
	.st80{fill:url(#SVGID_31_);}
	.st81{fill:url(#SVGID_32_);}
	.st82{fill:url(#SVGID_33_);}
	.st83{fill:#7BC3F4;}
	.st84{fill:url(#SVGID_34_);}
	.st85{fill:url(#SVGID_35_);}
	.st86{fill:url(#SVGID_36_);}
	.st87{fill:url(#SVGID_37_);}
	.st88{fill:url(#SVGID_38_);}
	.st89{fill:url(#SVGID_39_);}
	.st90{fill:url(#SVGID_40_);}
	.st91{fill:url(#SVGID_41_);}
	.st92{fill:url(#SVGID_42_);}
	.st93{fill:url(#SVGID_43_);}
	.st94{fill-rule:evenodd;clip-rule:evenodd;fill:url(#SVGID_44_);}
	.st95{fill:url(#SVGID_45_);}
	.st96{fill-rule:evenodd;clip-rule:evenodd;fill:#BCD9FF;}
	.st97{fill-rule:evenodd;clip-rule:evenodd;fill:url(#SVGID_46_);}
	.st98{fill:url(#SVGID_47_);}
	.st99{fill:url(#SVGID_48_);}
	.st100{fill:#EAF4FF;}
	.st101{fill:url(#SVGID_49_);}
	.st102{fill:url(#SVGID_50_);}
	.st103{fill:url(#SVGID_51_);}
	.st104{fill-rule:evenodd;clip-rule:evenodd;fill:url(#SVGID_52_);}
	.st105{fill-rule:evenodd;clip-rule:evenodd;fill:url(#SVGID_53_);}
	.st106{fill-rule:evenodd;clip-rule:evenodd;fill:url(#SVGID_54_);}
	.st107{fill-rule:evenodd;clip-rule:evenodd;fill:url(#SVGID_55_);}
	.st108{fill-rule:evenodd;clip-rule:evenodd;fill:url(#SVGID_56_);}
	.st109{fill-rule:evenodd;clip-rule:evenodd;fill:url(#SVGID_57_);}
	.st110{fill-rule:evenodd;clip-rule:evenodd;fill:url(#SVGID_58_);}
	.st111{fill-rule:evenodd;clip-rule:evenodd;fill:url(#SVGID_59_);}
	.st112{fill-rule:evenodd;clip-rule:evenodd;fill:#051533;}
	.st113{fill-rule:evenodd;clip-rule:evenodd;fill:url(#SVGID_60_);}
	.st114{fill-rule:evenodd;clip-rule:evenodd;fill:url(#SVGID_61_);}
	.st115{fill-rule:evenodd;clip-rule:evenodd;fill:url(#SVGID_62_);}
	.st116{fill-rule:evenodd;clip-rule:evenodd;fill:#FF4800;}
	.st117{fill-rule:evenodd;clip-rule:evenodd;fill:url(#SVGID_63_);}
	.st118{fill-rule:evenodd;clip-rule:evenodd;fill:url(#SVGID_64_);}
	.st119{fill-rule:evenodd;clip-rule:evenodd;fill:url(#SVGID_65_);}
	.st120{fill-rule:evenodd;clip-rule:evenodd;fill:url(#SVGID_66_);}
	.st121{fill-rule:evenodd;clip-rule:evenodd;fill:url(#SVGID_67_);}
	.st122{fill-rule:evenodd;clip-rule:evenodd;fill:url(#SVGID_68_);}
	.st123{fill-rule:evenodd;clip-rule:evenodd;fill:url(#SVGID_69_);}
	.st124{fill:url(#SVGID_70_);}
	.st125{fill:url(#SVGID_71_);}
	.st126{fill:#F16222;}
</style>
<polyline class="st1" points="79.9,1037.7 -1611.1,1037.7 -1611.1,3.7 "/>
<g>
	<defs>
		<rect id="SVGID_72_" x="751.9" y="430.7" width="676" height="279"/>
	</defs>
	<clipPath id="SVGID_1_">
		<use xlink:href="#SVGID_72_"  style="overflow:visible;"/>
	</clipPath>
	<g style="clip-path:url(#SVGID_1_);">
		
			<image style="overflow:visible;" width="1920" height="1080" xlink:href="B466B859.jpg"  transform="matrix(1 0 0 1 363.625 -27.4182)">
		</image>
	</g>
</g>
<g>
	<circle class="st126" cx="449.4" cy="63" r="63"/>
	<g>
		<path class="st2" d="M9.6,84.1c3.8,3.8,8.4,5.7,13.8,5.7c5.7,0,8.5-1.7,8.5-5c0-1.7-1.6-3-4.7-3.9c-2.2-0.5-5.8-1.4-10.6-2.7
			c-3.9-1-7.2-2.9-9.9-5.7c-2.7-2.7-4-6.9-4-12.6c0-4.4,1.1-8.1,3.3-11.1c2.2-3,5.1-5.2,8.6-6.7c3.6-1.5,7.6-2.2,11.8-2.2
			c2.4,0,4.9,0.3,7.4,1c2.7,0.8,5.1,1.9,7.3,3.1c2.3,1.3,4.4,2.8,6.2,4.4L36.8,58.9c-3.1-2.3-6.4-3.5-10-3.5c-4.3,0-6.5,1.2-6.5,3.6
			c0,2.2,1.6,3.7,4.8,4.6c3.5,1,7.1,1.8,10.7,2.7c3.9,1,7.2,2.8,9.8,5.5c2.7,2.7,4,6.9,4,12.7c0,4.3-1.2,8.1-3.5,11.2
			c-2.3,3.2-5.4,5.5-9.2,7.1c-3.8,1.6-7.8,2.4-12,2.4c-3.5,0-6.6-0.3-9.3-0.8c-2.8-0.5-5.4-1.4-7.8-2.6c-2.5-1.2-5.1-2.9-7.9-4.9
			L9.6,84.1z"/>
		<path class="st2" d="M52.6,103.3V18.9l19-0.1v46.6h0.2l19.7-23.1h22.3l-22,26.1l25.9,34.7H94L71.6,73.4v29.9H52.6z"/>
		<path class="st2" d="M139.8,18.8v27.1c1.8-1.9,4.1-3.3,6.8-4.4c2.7-1.1,5.5-1.6,8.3-1.6c15.3,0,22.9,8.9,22.9,26.8v36.5l-19,0.1
			V68.1c0-3.6-0.8-6.4-2.5-8.2c-1.7-1.8-4-2.7-7-2.7c-2.9,0-5.2,0.9-6.9,2.7c-1.7,1.8-2.6,4.6-2.6,8.2v35.2l-19,0.1V18.9L139.8,18.8
			z"/>
		<path class="st2" d="M253.5,18.9l19-0.1v84.4l-19,0.2V18.9z"/>
		<path class="st2" d="M326.3,101.5c-1.3,0.6-2.2,0.9-2.8,1.1c-4.2,1.6-8.6,2.4-13.2,2.4c-6.1,0-11.8-1.4-17.2-4.2
			c-5.4-2.9-9.7-6.7-12.9-11.7c-3.2-5-4.8-10.6-4.8-16.7c0-4.6,0.9-9,2.8-13c1.9-4,4.4-7.4,7.7-10.4c3.2-2.9,6.9-5.2,11.2-6.7
			c4.2-1.6,8.6-2.4,13.2-2.4c4.5,0,8.9,0.8,13.2,2.4c4.3,1.6,8,3.8,11.2,6.8c3.3,3,5.9,6.5,7.7,10.4c1.9,4,2.8,8.3,2.8,13l-0.1,31
			l-18.9-0.2V101.5z M296.7,64.8c-1.5,2.3-2.2,4.9-2.2,7.7c0,4.2,1.6,7.8,4.8,10.9c3.1,3,6.8,4.5,11.1,4.5c4.3,0,8.1-1.5,11.2-4.5
			c3.2-3.1,4.8-6.7,4.8-10.9c0-2.8-0.7-5.3-2.2-7.7c-1.5-2.3-3.4-4.2-5.9-5.6c-2.4-1.3-5-2-7.9-2c-2.7,0-5.3,0.7-7.8,2
			C300.1,60.6,298.1,62.5,296.7,64.8z"/>
		<path class="st2" d="M379.5,58.3c-1-0.7-2.3-1.1-3.9-1.1h-1.1c-4.8,0.2-7.3,3.6-7.3,10.1v36.1h-19V67.2c0-17.3,8.8-26.4,26.3-27.3
			h1.1c1.3,0,2.6,0.2,3.9,0.4V58.3z"/>
		<path class="st2" d="M215,47.9l25-9.1c0,0-25.2-9.1-25-9.1c0.2,0-25.3,9.1-25.3,9.1L215,47.9z"/>
		<path class="st2" d="M247.7,59.5c-1.8-4-4.4-7.5-7.7-10.5c-2-1.8-4.3-3.4-6.6-4.7l-17.7,6.4l-17.9-6.4c-1.1,0.6-2.2,1.3-3.2,2v6
			c0.4,0.2,0.7,0.7,0.7,1.2s-0.3,0.9-0.7,1.2v0.2c0.8,0.4,0.8,1.7,0.8,1.7l0.7,5.5h-1.5h-1.5h-1.1c0,0,0.5-3.3,0.6-5.4
			c0.1-1.1,0.4-1.6,0.6-1.8l0-0.2c-0.4-0.2-0.6-0.7-0.6-1.2c0-0.5,0.3-0.9,0.7-1.2l0.1-5c-0.7,0.6-1.5,1.1-2.2,1.7
			c-3.3,2.9-5.8,6.4-7.7,10.4c-1.9,4-2.8,8.3-2.8,13c0,6.2,1.6,11.8,4.8,16.8c3.2,5,7.5,8.9,12.9,11.7c5.4,2.9,11.1,4.3,17.2,4.3
			c4.6,0,9-0.8,13.2-2.4c4.1-1.5,7.9-3.8,11.2-6.8c3.3-3.1,5.9-6.6,7.7-10.5c1.8-3.9,2.7-8.3,2.7-13
			C250.5,67.8,249.6,63.5,247.7,59.5z M226.8,83.4c-3.1,3.1-6.9,4.6-11.2,4.6c-4.3,0-8-1.5-11.1-4.6c-3.2-3.1-4.8-6.7-4.8-10.9
			c0-2.8,0.7-5.3,2.2-7.7c1.5-2.3,3.4-4.2,5.9-5.6c2.5-1.4,5.1-2.1,7.8-2.1c2.8,0,5.4,0.7,7.9,2.1c2.5,1.4,4.4,3.3,5.9,5.6
			c1.5,2.3,2.2,4.9,2.2,7.7C231.6,76.7,230,80.4,226.8,83.4z"/>
	</g>
	<g>
		<path class="st7" d="M405.2,94.1V31.9c0-0.6,0.5-1.1,1.1-1.1h10.8c0.6,0,1.1,0.5,1.1,1.1v62.2c0,0.6-0.5,1.1-1.1,1.1h-10.8
			C405.7,95.2,405.2,94.8,405.2,94.1z"/>
		<path class="st7" d="M449.4,94.2l-1.5-8.8c0-0.3-0.3-0.5-0.6-0.5h-11.5c-0.3,0-0.6,0.1-0.6,0.4l-1.7,8.9c-0.1,0.7-0.6,1-1.2,1
			h-10.8c-0.7,0-1.1-0.4-0.9-1.2l13.5-62.2c0.1-0.6,0.6-1,1.2-1h12.4c0.6,0,1.1,0.4,1.2,1L462.5,94c0.2,0.8-0.2,1.2-0.9,1.2h-11
			C449.9,95.2,449.5,94.9,449.4,94.2z M437.8,74.9h7.9c0.3,0,0.4-0.2,0.4-0.5l-3.9-23.7c-0.1-0.4-0.5-0.4-0.6,0l-4.3,23.7
			C437.2,74.8,437.5,74.9,437.8,74.9z"/>
		<path class="st7" d="M461.8,79.1v-2.9c0-0.6,0.5-1.1,1.1-1.1h10.6c0.6,0,1.1,0.5,1.1,1.1v2.3c0,3.9,2.1,6.3,5.1,6.3s5.2-2.4,5.2-6
			c0-4-2.7-6-8.9-10.6c-6.8-4.9-14.3-10.3-14.3-21c0-10.5,7.2-17.2,17.7-17.2c10.9,0,18,7.1,18,17.7V50c0,0.6-0.5,1.1-1.1,1.1h-10.6
			c-0.6,0-1.1-0.5-1.1-1.1v-2.5c0-3.8-2.1-6.3-5.2-6.3c-2.9,0-4.9,2.2-4.9,6.1c0,3.9,2.1,6,8.6,10.8c9.6,7,14.7,11,14.7,20.2
			c0,10.9-7.4,17.7-17.9,17.7C468.9,96,461.8,89.1,461.8,79.1z"/>
	</g>
</g>
</svg>
