<?xml version="1.0" encoding="utf-8"?>
<!-- Generator: Adobe Illustrator 21.1.0, SVG Export Plug-In . SVG Version: 6.00 Build 0)  -->
<svg version="1.1" id="Layer_1" xmlns="http://www.w3.org/2000/svg" xmlns:xlink="http://www.w3.org/1999/xlink" x="0px" y="0px"
	 viewBox="0 0 16.9 10.3" style="enable-background:new 0 0 16.9 10.3;" xml:space="preserve">
<style type="text/css">
	.st0{fill:#8DB8CE;}
</style>
<path class="st0" d="M15.1,0.7L8.5,7.5L1.8,0.7C1.6,0.5,1.3,0.3,1.1,0.3c-0.3,0-0.5,0.1-0.7,0.3C0.1,0.8,0,1.1,0,1.4l0,0
	c0,0.3,0.1,0.5,0.3,0.7l7.4,7.5C7.9,9.9,8.2,10,8.5,10C8.7,10,9,9.9,9.2,9.7l7.4-7.5c0.2-0.2,0.3-0.5,0.3-0.8c0-0.2-0.1-0.5-0.3-0.7
	c-0.2-0.2-0.4-0.3-0.7-0.3C15.7,0.3,15.4,0.4,15.1,0.7z M0.5,1.4L0.5,1.4L0.5,1.4L0.5,1.4z"/>
</svg>
