<?xml version="1.0" encoding="utf-8"?>
<!-- Generator: Adobe Illustrator 22.1.0, SVG Export Plug-In . SVG Version: 6.00 Build 0)  -->
<svg version="1.1" id="Layer_1" xmlns="http://www.w3.org/2000/svg" xmlns:xlink="http://www.w3.org/1999/xlink" x="0px" y="0px"
	 viewBox="0 0 394.1 430" style="enable-background:new 0 0 394.1 430;" xml:space="preserve">
<style type="text/css">
	.st0{fill:#02258B;}
</style>
<path class="st0" d="M193.2,103.7l141-51.4c0,0-142.2-51.4-141-51.4S50.4,52.2,50.4,52.2L193.2,103.7z"/>
<path class="st0" d="M378.2,169.2c-10.3-22.4-24.7-42.1-43.3-59.1c-11.5-10.4-24-19-37.2-26.2l-99.6,36.3L97.2,83.9
	c-6.3,3.4-12.4,7.2-18.2,11.2v33.6c2.3,1.3,3.8,3.8,3.8,6.6c0,2.8-1.5,5.3-3.8,6.6v0.9c4.4,2.4,4.4,9.6,4.4,9.6l3.8,31.1h-8.3h-8.3
	h-6.4c0,0,2.5-18.4,3.2-30.5c0.3-6.3,2.1-9,3.6-10.1l0-1.2c-2.2-1.3-3.6-3.7-3.6-6.5c0-2.8,1.5-5.3,3.8-6.6l0.3-28.3
	c-4.2,3.2-8.3,6.4-12.2,10c-18.3,16.6-32.8,36.1-43.3,58.7c-10.5,22.6-15.8,47-15.8,73.1c0,34.9,9.1,66.4,27.2,94.6
	c17.9,28,42.1,50,72.5,66.1c30.4,16.1,62.8,24.2,97,24.2c26.2,0,51-4.6,74.5-13.8c23.3-8.7,44.4-21.6,63.4-38.6
	c18.8-17.2,33.3-37,43.6-59.4c10.3-22.2,15.4-46.5,15.4-73.1C394,216.2,388.7,191.8,378.2,169.2z M260.1,304.1
	C242.4,321.4,221.4,330,197,330c-24.2,0-45.1-8.6-62.7-25.8c-17.9-17.2-26.8-37.8-26.8-61.7c0-15.7,4.1-30.1,12.4-43.3
	c8.3-13.2,19.3-23.7,33.2-31.5c13.9-7.8,28.5-11.7,44-11.7c15.9,0,30.6,3.9,44.3,11.7c13.9,7.8,24.9,18.3,33.2,31.5
	c8.3,13.2,12.4,27.6,12.4,43.3C286.9,266.3,278,286.9,260.1,304.1z"/>
</svg>
